<?xml version="1.0" standalone="no"?>
<!DOCTYPE svg PUBLIC "-//W3C//DTD SVG 20010904//EN"
 "http://www.w3.org/TR/2001/REC-SVG-20010904/DTD/svg10.dtd">
<svg version="1.0" xmlns="http://www.w3.org/2000/svg"
 width="307.000000pt" height="307.000000pt" viewBox="0 0 307.000000 307.000000"
 preserveAspectRatio="xMidYMid meet">
<metadata>
Created by potrace 1.14, written by Peter Selinger 2001-2017
</metadata>
<g transform="translate(0.000000,307.000000) scale(0.100000,-0.100000)"
fill="#000000" stroke="none">
<path d="M1426 3063 c-3 -4 -37 -8 -73 -10 -37 -1 -74 -6 -83 -9 -8 -4 -28 -8
-43 -10 -49 -5 -59 -12 -52 -36 6 -22 5 -22 -7 -3 -14 21 -38 31 -38 16 0 -6
-9 -8 -20 -6 -17 3 -19 0 -15 -23 5 -25 5 -25 -4 -5 l-10 22 -60 -21 c-33 -12
-58 -25 -55 -30 3 -4 -2 -5 -10 -2 -8 3 -34 -5 -58 -17 -23 -13 -46 -22 -50
-21 -12 3 -9 -12 5 -28 6 -8 2 -6 -10 4 -20 17 -23 17 -29 2 -3 -9 -10 -13
-15 -10 -5 3 -9 0 -9 -7 0 -7 -3 -9 -6 -6 -10 9 -46 -12 -39 -23 3 -6 0 -8 -7
-5 -7 3 -24 -5 -38 -16 -14 -11 -20 -18 -14 -15 6 3 11 -1 11 -9 0 -11 -4 -12
-13 -4 -11 9 -30 -1 -81 -39 -82 -61 -203 -184 -203 -206 0 -9 -5 -16 -11 -16
-8 0 -8 -4 1 -14 10 -13 7 -15 -17 -13 -19 1 -27 -2 -25 -11 1 -8 -2 -11 -8
-7 -6 4 -16 -7 -23 -24 -7 -17 -16 -28 -20 -24 -4 3 -7 1 -7 -5 0 -19 4 -27
12 -25 5 2 8 -1 8 -6 0 -5 -12 -11 -27 -13 -14 -2 -28 -8 -30 -14 -2 -7 8 -9
29 -6 29 4 31 3 20 -11 -7 -8 -22 -14 -32 -12 -10 2 -26 -2 -36 -10 -16 -11
-13 -12 23 -8 24 3 44 0 48 -6 3 -6 -2 -12 -12 -13 -10 0 -22 -2 -28 -3 -5 -2
-22 -3 -37 -4 -16 0 -28 -5 -28 -10 0 -5 31 -8 70 -6 38 2 72 1 74 -4 3 -4 0
-8 -7 -8 -69 -4 -157 -18 -157 -24 0 -5 44 -6 97 -2 71 4 95 3 88 -5 -6 -6
-54 -14 -108 -18 -53 -4 -97 -11 -97 -15 0 -5 52 -7 115 -5 63 3 117 1 119 -3
3 -4 0 -8 -7 -8 -7 0 -39 -4 -72 -8 -33 -4 -84 -8 -113 -9 -28 -1 -58 -8 -65
-16 -8 -8 -8 -11 0 -6 15 8 45 -3 37 -15 -3 -5 -17 -9 -31 -9 -36 0 -20 -13
17 -15 17 -1 36 -7 42 -13 9 -9 -1 -12 -45 -12 -31 0 -57 -4 -57 -10 0 -5 25
-7 63 -3 53 5 65 3 77 -13 9 -10 10 -15 3 -10 -7 4 -13 2 -13 -3 0 -12 3 -13
42 -16 17 -1 25 2 22 10 -3 6 2 12 11 12 8 0 15 -4 15 -9 0 -5 4 -7 9 -3 6 3
15 -4 21 -15 6 -11 16 -20 23 -20 7 0 13 -10 14 -22 2 -22 -2 -23 -67 -26 -39
-2 -70 1 -70 5 0 5 21 9 48 9 35 0 47 3 47 14 0 13 -22 15 -134 13 -74 -2
-137 -5 -140 -8 -7 -8 -10 -64 -2 -63 26 3 61 -4 61 -13 0 -6 -14 -9 -35 -6
-47 6 -55 -10 -13 -27 l33 -14 -40 -4 c-27 -2 -40 -8 -40 -18 0 -9 9 -15 22
-14 13 1 20 -2 18 -7 -3 -4 -14 -6 -25 -4 -21 4 -34 -24 -29 -61 1 -11 -1 -26
-4 -34 -3 -8 -7 -36 -10 -62 -4 -39 -2 -48 12 -49 9 0 60 0 114 1 55 0 97 -3
94 -7 -3 -4 -55 -8 -116 -7 -95 0 -111 -2 -109 -15 3 -13 27 -15 165 -14 89 1
164 -1 167 -6 3 -4 -69 -7 -160 -8 -90 0 -167 -3 -171 -6 -13 -14 7 -35 29
-31 21 4 21 4 3 -5 -11 -4 -23 -7 -27 -4 -5 2 -8 -3 -8 -11 0 -18 -11 -17 203
-17 94 0 147 -4 147 -11 0 -6 -58 -8 -175 -6 -142 4 -175 2 -175 -9 0 -7 5
-14 10 -14 6 -1 14 -2 19 -3 20 -2 19 -12 -1 -13 -11 -1 -23 -4 -26 -8 -19
-19 38 -25 260 -26 144 -1 245 -6 242 -11 -3 -5 -110 -7 -250 -4 l-244 5 5
-52 c3 -29 8 -59 10 -67 2 -8 7 -30 10 -49 17 -101 72 -260 128 -370 29 -58
35 -64 67 -66 19 -2 42 1 50 6 8 4 13 9 10 9 -31 7 -40 7 -40 -1 0 -6 -6 -4
-14 3 -12 11 -12 14 1 22 9 5 18 4 22 -1 3 -6 15 -9 26 -7 12 2 27 -6 37 -19
12 -14 18 -17 18 -8 0 8 7 23 16 33 16 16 15 18 -7 27 -13 5 -32 7 -42 5 -38
-7 -6 15 90 61 18 8 33 19 33 25 0 16 66 41 94 36 42 -8 235 -10 242 -3 4 4 1
13 -5 21 -10 12 -1 14 59 15 55 0 70 -3 70 -14 0 -9 -6 -12 -15 -9 -9 4 -15 0
-15 -9 0 -11 10 -15 33 -15 17 0 75 -3 127 -6 52 -3 207 -8 343 -10 136 -2
251 -7 255 -11 4 -4 -141 -4 -323 0 -533 12 -490 13 -488 -8 1 -17 -8 -18
-149 -12 -145 6 -151 6 -146 -12 4 -16 -1 -20 -31 -21 -33 -3 -44 -10 -42 -29
1 -7 50 -10 213 -16 30 -1 43 -6 37 -11 -5 -6 -9 -17 -9 -26 0 -13 -12 -16
-67 -16 -54 1 -68 -2 -68 -14 0 -8 -6 -20 -14 -26 -25 -20 -9 -35 21 -20 15 8
29 12 32 9 3 -4 35 -7 71 -7 50 -1 64 2 60 12 -3 7 0 10 5 7 6 -3 10 -12 10
-20 0 -10 13 -12 49 -9 29 2 55 -2 66 -10 15 -11 8 -12 -47 -11 -36 1 -70 5
-75 8 -13 8 -55 -22 -48 -33 3 -5 -22 -10 -55 -12 -33 -2 -61 -7 -61 -13 0 -5
-5 -15 -11 -22 -18 -22 1 -31 72 -30 66 0 75 4 71 30 -1 7 215 4 229 -3 3 -2
14 -3 24 -4 22 -1 29 -15 18 -34 -6 -9 -20 -10 -55 -3 -26 5 -50 5 -52 1 -6
-10 -25 -8 -44 4 -9 6 -12 5 -8 -1 12 -19 -27 -40 -75 -41 -26 0 -52 -3 -58
-7 -17 -10 -11 -23 13 -31 12 -4 25 -12 29 -18 6 -8 8 -8 8 0 0 17 73 6 87
-13 14 -18 48 -10 40 11 -3 7 4 21 15 30 26 23 152 20 143 -3 -4 -11 0 -10 14
3 23 21 41 14 34 -12 -4 -17 -14 -18 -94 -14 -83 3 -91 2 -95 -16 -4 -13 -14
-19 -32 -18 -15 1 -39 -4 -54 -11 -16 -8 -28 -10 -28 -6 -1 5 -7 -3 -15 -17
-8 -14 -14 -21 -15 -16 0 14 -40 -25 -40 -39 0 -24 31 -25 53 -2 12 13 28 22
35 21 6 -1 17 -2 22 -3 19 -2 10 -20 -17 -33 -25 -12 -28 -18 -28 -70 -1 -58
13 -80 39 -59 6 5 31 7 56 5 55 -4 206 -12 238 -13 13 -1 21 -5 17 -11 -3 -5
-50 -7 -112 -5 -101 4 -133 -2 -133 -25 0 -15 66 -31 139 -35 39 -2 75 -6 81
-10 5 -3 10 0 11 7 0 7 4 2 10 -10 11 -29 4 -43 -18 -35 -10 4 -14 2 -9 -5 8
-13 82 -35 201 -58 125 -25 415 -25 540 -1 301 59 565 193 788 400 72 66 78
74 68 97 -5 14 -10 19 -10 12 -1 -10 -5 -10 -23 0 -13 7 -28 11 -34 10 -6 -1
-17 5 -24 13 -7 8 -19 15 -27 15 -8 0 -24 5 -36 12 -25 13 -31 15 -102 24 -27
4 -53 12 -57 18 -5 7 -8 7 -8 -3 0 -9 -4 -10 -12 -4 -7 5 -20 9 -28 8 -8 0
-18 4 -22 10 -5 6 -8 5 -8 -3 0 -7 -5 -10 -11 -6 -12 7 -79 13 -184 17 -27 1
-55 5 -60 9 -6 3 -31 9 -55 12 -38 6 -76 13 -112 22 -5 1 -17 2 -29 3 -18 1
-20 7 -18 44 1 23 6 49 10 58 4 8 10 34 13 56 2 22 8 57 12 78 4 21 7 48 8 59
1 28 30 32 54 8 11 -11 38 -23 61 -27 39 -6 67 -25 39 -25 -11 0 -11 -2 0 -9
22 -14 173 -3 192 14 9 8 20 12 25 8 4 -5 5 -2 1 4 -4 7 -2 13 4 13 7 0 9 8 5
19 -3 12 0 21 10 25 8 3 15 13 15 21 0 9 -4 14 -9 10 -5 -3 -13 0 -17 6 -4 8
-3 9 4 5 7 -4 12 -1 12 9 0 8 -7 18 -15 21 -12 5 -13 9 -3 21 9 11 9 16 -2 23
-11 7 -11 11 -1 23 8 11 9 17 1 22 -6 4 -8 15 -5 25 3 10 1 21 -5 25 -8 5 -8
11 0 20 6 7 8 20 4 29 -4 10 0 18 10 22 11 4 14 13 11 24 -4 13 1 20 15 25 13
4 19 12 16 21 -3 8 1 17 10 21 11 4 14 13 9 30 -4 16 -1 25 10 30 9 3 14 12
11 19 -3 8 -2 14 2 15 67 6 82 13 64 31 -8 8 -6 17 6 36 14 21 14 25 2 17 -9
-5 -8 0 4 13 11 12 14 22 9 22 -6 0 -16 14 -22 30 -5 17 -15 30 -20 30 -6 0
-8 6 -5 13 3 8 -2 20 -11 27 -25 20 -17 30 23 30 29 0 44 6 60 25 24 27 28 45
11 45 -6 0 -8 9 -4 21 5 15 2 22 -14 26 -17 4 -19 8 -10 19 8 10 9 18 0 27 -6
8 -8 17 -4 20 3 4 1 12 -5 20 -6 7 -7 18 -3 26 5 7 6 22 3 34 -4 17 -1 19 16
15 33 -9 26 1 -8 13 -23 9 -28 14 -21 27 4 10 6 23 4 30 -3 7 3 20 13 27 18
14 18 14 -1 15 -19 1 -19 2 3 20 15 12 19 21 11 26 -7 4 2 12 22 21 31 14 32
16 14 23 -18 7 -18 9 9 19 16 6 26 14 22 18 -3 3 1 15 11 25 9 11 11 18 5 18
-16 0 -15 30 1 30 6 1 2 6 -11 13 -12 7 -20 16 -16 20 4 3 2 13 -5 20 -16 20
9 39 43 33 15 -3 24 -2 22 2 -2 4 -19 9 -37 10 -40 3 -45 7 -30 26 7 8 8 15 2
18 -5 1 -12 26 -14 53 -3 28 -10 63 -16 78 -14 35 -14 47 -1 27 8 -13 10 -13
10 1 0 9 -6 19 -14 22 -7 3 -23 26 -36 51 -12 25 -25 44 -28 42 -4 -2 -8 7 -9
21 -1 19 1 22 8 12 6 -10 9 -8 10 11 1 25 1 25 7 2 8 -27 25 -34 30 -12 2 15
-36 49 -99 88 l-37 22 -10 -28 c-6 -17 -6 -35 -1 -43 13 -20 11 -31 -3 -23
-10 5 -10 4 -1 -6 14 -15 -2 -55 -17 -45 -6 3 -7 -1 -4 -10 7 -18 30 -14 26 5
-1 6 3 10 10 8 7 -3 13 -9 13 -14 0 -20 18 -35 36 -31 11 3 16 1 13 -4 -3 -6
-1 -16 5 -23 9 -10 3 -12 -32 -9 -23 1 -107 4 -186 6 -109 3 -144 0 -148 -9
-7 -19 19 -50 42 -49 11 0 25 -11 33 -25 12 -22 13 -23 9 -3 -6 27 19 39 31
15 20 -41 11 -47 -73 -50 -76 -3 -109 -17 -82 -34 7 -4 -37 -7 -96 -6 -59 0
-110 5 -113 9 -3 5 0 9 6 9 6 0 8 5 5 10 -11 17 -24 11 -20 -10 3 -15 -2 -20
-19 -20 -27 0 -36 -8 -30 -24 3 -8 36 -12 109 -11 98 2 121 -4 94 -21 -8 -4
-7 -9 2 -15 11 -7 -113 -12 -273 -12 -25 0 -22 -11 5 -25 12 -7 61 -12 112
-11 130 1 265 -3 233 -8 -28 -4 -39 -22 -15 -24 83 -4 111 -2 114 8 2 6 -6 13
-19 16 -13 2 11 5 52 5 60 0 70 -1 48 -9 -17 -7 -25 -15 -21 -25 4 -10 -3 -14
-23 -14 -31 1 -834 -8 -847 -9 -4 -1 -3 -9 2 -19 7 -13 7 -22 0 -29 -20 -20
12 -25 159 -23 308 4 463 2 470 -5 4 -3 2 -5 -3 -3 -6 2 -11 0 -13 -4 -6 -19
0 -27 21 -31 12 -2 -108 -5 -268 -6 -303 -3 -461 -8 -483 -16 -7 -3 -22 0 -34
6 -17 9 -19 8 -16 -13 3 -25 -13 -24 318 -18 120 3 119 3 113 -18 -4 -18 10
-19 282 -19 157 0 288 -3 292 -7 3 -3 -136 -6 -309 -6 -303 0 -316 1 -311 19
5 22 -25 33 -51 19 -21 -12 -12 -28 16 -28 17 0 18 -3 8 -15 -19 -23 -2 -35
50 -32 28 1 50 -1 50 -5 0 -5 -39 -8 -87 -9 -49 0 -97 -4 -108 -9 -11 -5 -15
-9 -10 -10 42 -6 114 -8 353 -9 149 0 272 -4 272 -8 0 -5 -134 -7 -297 -7
-164 1 -304 -1 -310 -3 -28 -11 -13 -33 22 -33 19 0 35 5 35 11 0 8 4 8 13 2
7 -6 80 -9 167 -8 85 0 166 -2 180 -6 14 -3 -49 -7 -140 -8 -90 -1 -168 -5
-173 -10 -5 -5 -24 -5 -44 1 -41 11 -86 3 -80 -15 2 -8 121 -11 478 -10 261 0
483 -3 494 -7 11 -5 -258 -9 -598 -9 -339 0 -622 -3 -627 -6 -6 -3 -10 -12
-10 -20 0 -12 40 -13 243 -10 181 4 236 2 217 -6 -14 -6 -46 -11 -72 -10 -25
1 -49 -3 -52 -8 -4 -6 12 -10 41 -10 27 -1 75 -5 108 -10 46 -6 9 -9 -160 -10
-338 -3 -539 -11 -550 -22 -19 -19 19 -28 105 -23 127 7 1285 10 1360 3 36 -3
-161 -6 -437 -7 -343 -1 -504 -5 -508 -13 -9 -14 -2 -20 24 -22 35 -2 24 -17
-14 -17 -26 0 -33 3 -29 15 4 10 0 15 -11 15 -9 0 -13 -5 -10 -10 3 -6 0 -12
-7 -15 -22 -7 -719 -12 -724 -4 -2 4 2 10 8 13 10 3 8 9 -5 19 -17 14 -16 15
5 20 13 4 33 4 45 1 22 -6 40 10 23 21 -5 3 -37 6 -70 6 -33 0 -60 4 -60 7 0
4 51 7 113 7 133 0 171 6 175 26 2 12 -9 15 -60 13 -35 -1 -106 -3 -158 -4
-52 -1 -100 -7 -107 -12 -17 -13 -146 -20 -138 -8 4 6 11 8 16 5 5 -4 9 2 9
12 0 16 -10 18 -112 16 -61 -2 -108 0 -104 4 11 11 270 12 277 1 7 -10 86 -14
96 -4 3 3 1 11 -5 18 -13 17 5 33 37 33 13 0 26 6 29 14 4 11 -3 13 -32 8 -34
-5 -36 -4 -30 15 4 13 1 24 -7 29 -10 6 -11 9 -1 9 6 0 12 7 12 15 0 8 -5 15
-10 15 -6 0 -8 11 -4 25 5 21 3 24 -15 20 -16 -3 -25 3 -33 20 -6 14 -15 25
-19 25 -5 0 -6 7 -3 15 4 8 -1 17 -10 21 -9 3 -16 10 -16 16 0 5 -7 16 -15 25
-8 8 -13 19 -10 24 4 5 -1 9 -9 9 -9 0 -16 5 -16 10 0 6 4 10 8 10 5 0 9 7 9
15 0 8 -4 12 -9 9 -4 -3 -8 2 -8 11 0 20 -25 47 -34 37 -4 -3 -4 1 -1 10 4 9
1 19 -5 23 -9 6 -9 10 1 16 11 7 10 11 -6 23 -20 15 -20 15 2 11 12 -2 24 2
27 11 3 8 -1 14 -9 14 -7 0 -16 4 -19 9 -4 5 5 8 19 6 25 -2 34 9 15 20 -14 9
-12 25 3 22 19 -3 26 -19 17 -37 -6 -11 -5 -22 3 -30 9 -10 9 -11 0 -6 -17 9
-17 -6 0 -23 8 -10 8 -12 0 -7 -6 3 -14 2 -17 -3 -10 -15 17 -28 51 -25 28 2
33 -1 33 -20 0 -23 29 -71 30 -49 0 6 -4 15 -10 18 -5 3 -10 17 -10 30 0 13
-3 31 -6 40 -5 13 -8 14 -15 3 -7 -10 -9 -10 -9 2 0 12 -2 12 -9 2 -7 -11 -9
-11 -14 1 -4 11 0 15 14 12 10 -2 19 2 19 8 0 9 2 9 8 1 4 -6 15 -10 24 -8 10
1 20 -2 23 -6 3 -5 -3 -7 -14 -5 -18 3 -19 0 -14 -28 7 -35 33 -81 41 -73 3 3
-1 12 -7 20 -7 9 -8 17 -2 20 5 3 14 -6 20 -21 11 -28 11 -28 6 -2 -3 18 0 26
10 26 10 0 14 -7 10 -21 -3 -12 -2 -15 1 -8 5 10 9 9 20 -5 20 -26 17 -35 -7
-22 -17 9 -20 8 -14 -2 6 -9 3 -11 -8 -6 -10 4 -17 1 -17 -6 0 -8 -4 -6 -10 3
-9 13 -10 13 -10 0 0 -13 -1 -13 -10 0 -9 13 -10 13 -10 0 0 -13 -1 -13 -10 0
-7 11 -10 11 -10 2 0 -7 -4 -11 -9 -8 -4 3 -7 18 -5 33 4 27 3 28 -5 3 -6 -20
-3 -30 16 -51 13 -14 20 -28 17 -32 -8 -8 -64 61 -64 79 0 7 -5 16 -11 19 -5
4 -3 -9 5 -28 8 -20 11 -38 8 -42 -4 -4 0 -5 8 -3 8 2 14 -3 12 -10 -4 -19 34
-69 52 -69 9 0 16 7 16 16 0 11 3 10 15 -5 10 -13 14 -14 15 -5 0 10 3 11 13
3 8 -7 18 -7 27 -2 9 6 20 4 29 -3 12 -10 13 -9 6 2 -6 11 -4 13 8 8 10 -3 17
-2 17 2 0 5 -7 11 -15 15 -8 3 -15 0 -15 -6 0 -7 -5 -6 -15 2 -8 7 -15 8 -15
3 0 -10 -46 -10 -57 0 -3 4 -12 2 -20 -4 -9 -9 -13 -8 -13 0 0 6 0 14 0 19 0
10 23 10 37 0 6 -5 14 -4 18 3 6 8 10 7 16 -2 6 -10 9 -10 9 -2 0 6 9 10 20 8
11 -2 20 1 20 7 0 6 6 6 15 -2 13 -11 14 -10 9 3 -7 18 -31 30 -38 18 -7 -11
-107 -7 -104 4 4 13 50 15 66 2 9 -7 11 -5 5 9 -6 17 -5 17 10 5 11 -9 17 -10
17 -2 0 13 22 10 32 -4 5 -6 8 -6 8 2 0 13 17 12 40 -2 12 -7 13 -6 3 7 -7 8
-25 14 -40 13 -31 -2 -44 10 -36 32 4 11 8 10 20 -4 13 -16 13 -16 3 5 -6 12
-15 20 -21 17 -5 -4 -9 3 -9 15 0 12 -4 18 -10 15 -5 -3 -10 -2 -10 4 0 21 21
21 29 -1 6 -13 10 -18 11 -13 0 6 7 -1 16 -15 12 -21 14 -21 9 -4 -4 17 -1 21
17 20 28 -2 48 -13 48 -28 0 -6 -7 -5 -17 3 -15 11 -16 11 -6 -1 15 -17 43
-22 43 -9 0 6 6 7 13 3 7 -4 9 -3 4 2 -5 5 -13 9 -18 9 -5 0 -9 5 -9 10 0 17
24 11 41 -9 11 -14 18 -16 23 -7 4 7 2 10 -5 9 -6 -2 -14 3 -16 10 -3 7 -1 12
4 11 4 -1 10 0 13 1 3 1 18 3 34 4 16 1 31 7 32 14 1 7 0 8 -3 2 -3 -8 -9 -7
-19 1 -11 9 -14 8 -14 -2 0 -7 -13 0 -30 16 -16 15 -27 33 -23 38 3 6 1 7 -5
3 -7 -4 -12 -15 -13 -24 0 -14 -2 -13 -9 3 l-9 20 0 -20 c-1 -18 -3 -17 -14 5
-8 14 -11 31 -9 39 4 11 7 10 14 -5 7 -17 7 -17 5 3 -1 12 3 21 8 20 6 -1 9
-10 9 -20 -1 -13 2 -15 11 -7 8 7 16 7 19 2 3 -5 19 -8 36 -7 22 2 35 -4 51
-24 l21 -26 -16 27 c-9 15 -12 29 -7 33 5 3 12 -1 14 -7 4 -10 6 -9 6 1 1 11
4 11 18 0 9 -8 14 -9 10 -2 -5 8 4 10 33 8 27 -2 43 2 52 13 12 15 11 16 -4 3
-15 -11 -18 -11 -18 0 0 12 -2 12 -9 0 -7 -11 -10 -11 -17 0 -10 17 -12 59 -2
65 5 3 5 10 2 16 -4 6 -8 26 -9 44 0 18 -5 37 -9 41 -4 4 -5 -14 -2 -40 4 -32
2 -46 -5 -41 -6 3 -8 12 -5 19 2 7 2 16 -2 20 -3 3 -7 25 -8 48 -1 23 -5 56
-8 72 -4 21 -3 23 2 7 10 -33 26 -32 34 3 l7 30 -3 -33 c-1 -18 1 -35 6 -38 4
-3 8 -11 8 -17 0 -7 -9 -1 -20 13 l-19 25 6 -25 c4 -14 13 -30 20 -35 8 -6 13
-17 11 -25 -2 -8 3 -14 10 -12 6 1 12 -5 12 -14 0 -8 -4 -13 -9 -10 -8 5 -8
-15 -1 -34 1 -3 2 -8 1 -13 0 -4 5 -6 11 -5 7 2 12 -5 10 -14 -4 -24 14 -31
29 -10 13 16 13 16 -5 2 -18 -14 -19 -13 -13 2 3 10 2 20 -4 23 -5 4 -7 11 -3
16 3 5 2 8 -3 7 -4 -2 -8 2 -8 7 0 6 7 9 17 9 11 -1 14 4 10 15 -5 14 -4 14
11 2 9 -7 17 -10 17 -5 0 5 5 2 10 -6 8 -12 10 -12 10 -1 0 11 3 11 15 1 12
-10 16 -9 21 4 3 9 1 22 -5 30 -6 7 -8 16 -4 19 3 4 12 -1 20 -11 12 -15 13
-14 1 8 -7 14 -11 29 -10 34 2 5 -3 4 -11 -3 -12 -10 -18 -6 -35 21 -11 18
-22 40 -25 48 -5 13 -6 13 -6 -1 -1 -8 6 -24 14 -35 19 -25 19 -40 0 -24 -8 7
-15 19 -15 26 0 14 -21 15 -31 1 -3 -4 -6 6 -6 23 0 17 -4 35 -10 41 -10 10
-7 -41 4 -71 11 -28 12 -60 2 -65 -5 -4 -9 -3 -10 2 -10 129 -22 170 -35 119
l-7 -29 -13 29 c-7 16 -13 22 -13 14 -1 -12 -3 -12 -10 -2 -11 18 -7 -85 4
-112 6 -14 5 -17 -3 -12 -7 4 -12 15 -13 24 0 14 -2 14 -10 -3 -7 -16 -8 -13
-3 10 13 63 14 75 10 75 -3 0 -10 -19 -16 -42 -9 -31 -14 -38 -21 -27 -7 12
-9 12 -10 -1 -1 -8 0 -19 1 -25 1 -5 4 -25 6 -43 2 -18 5 -36 5 -40 4 -28 -5
-30 -11 -2 -7 30 -7 29 -4 -12 1 -26 0 -49 -4 -52 -8 -5 -12 19 -11 74 0 19
-3 31 -7 27 -11 -11 -12 -59 -2 -79 5 -10 4 -19 -4 -24 -6 -4 -8 -3 -5 2 3 5
-3 10 -14 10 -10 0 -19 -4 -19 -9 0 -4 -6 -2 -14 5 -15 14 -11 32 5 23 5 -3 6
1 2 10 -5 13 -7 14 -14 3 -7 -10 -9 -10 -9 2 0 13 -1 13 -10 0 -5 -8 -10 -10
-11 -5 -3 22 -5 65 -2 65 1 0 9 -12 17 -27 8 -16 15 -21 16 -13 0 8 9 0 21
-19 11 -18 22 -31 25 -28 8 8 -29 76 -38 71 -15 -9 -57 36 -51 55 4 13 3 13
-5 2 -6 -8 -7 -24 -3 -35 4 -12 6 -39 5 -61 -2 -42 11 -69 28 -59 5 3 4 -3 -3
-15 -9 -14 -16 -17 -20 -9 -4 7 -6 15 -3 19 2 4 -1 11 -7 15 -8 5 -10 0 -6
-18 5 -18 2 -25 -8 -25 -10 0 -13 8 -9 26 4 21 2 20 -10 -7 -9 -18 -15 -36
-13 -40 1 -4 -2 -7 -8 -7 -5 0 -9 9 -8 20 l3 20 -9 -20 c-5 -11 -7 -23 -4 -27
2 -4 -6 -5 -17 -3 -16 3 -18 1 -11 -14 6 -10 6 -23 0 -32 -5 -7 -9 -9 -10 -4
0 6 -2 19 -4 29 -2 11 0 27 5 35 7 11 9 12 10 3 0 -22 20 -2 20 20 0 14 5 18
15 14 19 -7 35 30 35 79 0 19 4 36 9 39 11 7 9 62 -3 73 -5 4 -6 1 -4 -7 3 -8
1 -24 -5 -35 -6 -11 -10 -38 -9 -60 1 -22 -2 -47 -8 -55 -9 -13 -10 -13 -10 0
0 13 -1 13 -10 0 -9 -13 -10 -13 -10 0 0 13 -1 13 -10 0 -5 -8 -7 -24 -4 -35
2 -11 -4 -5 -14 14 -15 27 -20 30 -25 16 -10 -23 -9 -67 1 -61 4 2 7 -8 6 -22
-1 -15 3 -36 8 -47 9 -20 9 -20 -6 -1 -9 11 -16 14 -16 7 0 -7 -4 -10 -9 -6
-5 3 -12 -3 -15 -12 -3 -11 -4 -8 -3 7 1 14 8 25 15 25 15 0 15 2 7 48 -4 22
-3 48 3 61 5 13 7 29 2 36 -6 10 -8 10 -12 -1 -3 -10 -6 -9 -10 3 -5 12 0 15
23 13 16 -1 29 2 29 9 0 6 5 4 11 -4 8 -12 10 -9 6 12 -2 15 0 25 5 22 5 -3 8
-16 7 -27 -3 -43 4 -51 10 -12 9 52 5 61 -24 61 -21 0 -24 -4 -19 -20 8 -24 1
-20 -14 10 -10 20 -9 21 18 19 17 -1 30 2 30 9 0 6 5 4 10 -4 9 -13 10 -13 11
0 1 8 1 22 0 30 -2 13 -1 13 8 0 8 -12 12 -8 18 20 6 33 7 34 14 10 l7 -25 2
25 c1 14 2 29 1 34 -1 5 4 4 12 -2 9 -8 17 -8 24 -1 8 8 13 7 18 -2 5 -7 4
-10 -3 -5 -6 3 -13 2 -17 -4 -4 -6 -11 -8 -16 -5 -25 16 7 -71 35 -94 22 -18
30 5 12 31 -9 12 -16 17 -16 11 0 -7 5 -15 10 -18 6 -3 10 -11 10 -17 0 -7 -5
-6 -14 1 -8 7 -14 26 -14 42 1 20 4 26 9 17 7 -10 9 -10 9 2 0 9 3 11 8 5 4
-6 22 -10 39 -11 30 -1 32 2 28 25 -5 22 -4 23 4 6 l10 -20 0 20 c1 30 -11 42
-42 40 -15 -1 -30 3 -34 8 -3 6 -1 7 5 3 7 -4 12 0 13 11 0 14 2 15 7 3 9 -20
32 -24 32 -4 0 8 -4 13 -8 10 -5 -3 -9 1 -9 9 0 8 5 13 11 12 12 -2 12 4 1 43
-4 17 -3 21 3 11 8 -11 10 -11 14 0 3 8 4 0 3 -17 -1 -17 -4 -35 -7 -40 -3 -5
3 -31 13 -59 10 -27 18 -42 19 -33 0 9 3 24 7 34 4 11 3 15 -4 11 -7 -5 -9 1
-6 15 4 19 3 20 -7 8 -10 -13 -11 -13 -7 0 2 9 16 15 35 15 18 0 31 5 30 10
-2 6 -10 9 -20 9 -10 -1 -14 4 -11 13 5 11 8 12 14 2 5 -8 9 -2 12 17 l4 29 2
-30 c3 -30 3 -30 11 -5 8 25 8 25 9 2 1 -15 5 -21 13 -16 6 4 8 3 5 -3 -4 -6
0 -16 7 -22 9 -8 16 -8 20 -2 4 5 2 12 -4 16 -6 4 -8 11 -4 16 3 5 10 6 16 3
6 -4 9 -1 7 5 -3 7 -7 11 -10 9 -12 -6 -38 24 -32 38 4 12 8 12 19 -3 13 -16
14 -15 9 12 l-5 30 11 -29 c9 -22 14 -25 21 -15 7 11 8 9 6 -5 -2 -12 4 -20
15 -21 13 -3 17 3 16 23 0 23 -1 24 -8 8 -7 -19 -8 -19 -13 1 -5 17 -1 20 23
18 21 -2 29 2 30 14 0 12 2 11 9 -4 8 -18 9 -17 9 8 1 16 -3 26 -7 23 -5 -3
-9 1 -9 9 0 11 4 12 14 4 12 -11 17 -5 14 14 -1 5 4 5 10 1 9 -5 10 -2 6 12
-7 18 -6 18 7 1 10 -14 15 -15 19 -5 4 11 6 11 6 0 1 -7 6 -10 11 -7 6 4 10 3
9 -2 -1 -4 -1 -15 0 -23 1 -13 2 -13 11 0 9 13 10 13 11 0 0 -8 5 -4 9 10 7
22 8 23 9 4 1 -16 7 -21 26 -20 14 1 25 5 25 9 -1 40 -1 42 -9 23 -7 -18 -8
-18 -14 5 -9 33 -7 48 3 24 8 -18 9 -17 9 8 1 16 -3 26 -9 22 -6 -3 -7 1 -3
10 5 13 7 14 14 3 7 -10 9 -10 9 2 0 13 1 13 10 0 8 -12 10 -12 11 5 l0 20 9
-20 9 -20 1 20 1 20 10 -20 c9 -20 9 -20 6 0 -4 20 1 21 84 20 64 -1 89 3 89
11 0 16 -15 26 -24 17z m-409 -118 c0 -8 -4 -12 -9 -9 -5 3 -6 10 -3 15 9 13
12 11 12 -6z m-17 -39 c0 -26 -6 -18 -14 19 -5 22 -4 26 4 15 5 -8 10 -24 10
-34z m-50 20 c0 -2 -6 -9 -14 -15 -11 -9 -16 -9 -22 0 -4 7 -3 9 4 5 6 -3 13
-2 17 4 6 10 15 14 15 6z m28 -21 c-3 -3 -9 2 -12 12 -6 14 -5 15 5 6 7 -7 10
-15 7 -18z m39 -7 c-3 -8 -6 -5 -6 6 -1 11 2 17 5 13 3 -3 4 -12 1 -19z m-179
-43 c-3 -3 -9 2 -12 12 -6 14 -5 15 5 6 7 -7 10 -15 7 -18z m10 -40 c-3 -3 -9
2 -12 12 -6 14 -5 15 5 6 7 -7 10 -15 7 -18z m-107 -2 c13 -16 12 -17 -3 -4
-10 7 -18 15 -18 17 0 8 8 3 21 -13z m1615 5 c4 -7 3 -8 -4 -4 -8 5 -12 -1
-13 -16 0 -13 -3 -17 -6 -10 -5 13 2 42 11 42 3 0 8 -5 12 -12z m-1628 -133
c-3 -3 -9 2 -12 12 -6 14 -5 15 5 6 7 -7 10 -15 7 -18z m19 -17 c-3 -7 -5 -2
-5 12 0 14 2 19 5 13 2 -7 2 -19 0 -25z m20 0 c-3 -7 -5 -2 -5 12 0 14 2 19 5
13 2 -7 2 -19 0 -25z m112 -33 c0 -5 -4 -3 -9 5 -5 8 -9 22 -9 30 0 16 17 -16
18 -35z m126 3 c15 -20 23 -25 18 -13 -6 17 -4 18 9 8 8 -7 19 -9 24 -5 4 4 3
0 -4 -10 -9 -11 -10 -18 -2 -23 5 -3 10 -13 10 -22 0 -12 -3 -13 -13 -4 -8 6
-18 7 -22 3 -5 -4 -5 2 -1 13 4 11 4 16 0 12 -8 -8 -40 33 -36 46 1 5 -2 6 -8
2 -8 -5 -8 -11 -1 -19 6 -7 7 -16 3 -20 -4 -4 -8 -12 -8 -17 -4 -30 -6 -32
-13 -14 -5 11 -5 25 -1 30 4 6 7 22 5 38 -4 36 8 34 40 -5z m-161 -23 c5 0 11
-7 13 -15 4 -13 3 -13 -6 0 -6 8 -11 10 -11 5 0 -6 4 -15 9 -20 5 -6 11 -21
13 -35 2 -19 -1 -24 -14 -22 -19 3 -23 -8 -9 -23 4 -6 12 -23 15 -39 6 -26 5
-28 -8 -17 -9 7 -13 17 -10 22 3 5 0 17 -6 26 -10 16 -11 15 -7 -5 3 -12 1
-20 -3 -17 -5 3 -12 0 -16 -6 -4 -7 -3 -9 3 -6 6 4 16 0 22 -7 8 -10 9 -16 1
-21 -5 -3 -10 0 -10 7 0 9 -3 9 -10 -2 -9 -13 -10 -13 -10 0 0 13 -1 13 -10 0
-5 -8 -10 -12 -10 -8 0 3 -3 14 -6 23 -4 10 -2 15 7 13 17 -4 50 62 43 87 -13
49 -14 76 -1 68 6 -4 16 -8 21 -8z m34 -36 c1 -35 19 -62 36 -52 8 5 8 3 1 -8
-6 -8 -10 -28 -9 -44 2 -24 -2 -31 -17 -31 -13 0 -22 9 -26 26 -3 14 -11 32
-17 40 -5 8 -6 12 -2 8 17 -15 35 12 27 40 -7 23 -5 52 3 52 2 0 3 -14 4 -31z
m132 -3 c0 -5 -7 -3 -15 4 -8 7 -12 17 -9 22 7 10 24 -9 24 -26z m1276 25 c-4
-5 0 -12 6 -14 8 -3 6 -6 -4 -6 -10 -1 -18 6 -18 14 0 8 5 15 11 15 5 0 8 -4
5 -9z m-1772 -17 c3 -8 2 -12 -4 -9 -6 3 -10 10 -10 16 0 14 7 11 14 -7z m117
-17 c-10 -9 -11 -8 -5 6 3 10 9 15 12 12 3 -3 0 -11 -7 -18z m-173 -52 c-3 -3
-9 2 -12 12 -6 14 -5 15 5 6 7 -7 10 -15 7 -18z m37 -62 l4 -48 -9 44 c-5 23
-12 53 -15 65 -5 18 -4 18 5 4 5 -9 12 -38 15 -65z m200 49 c-3 -3 1 -12 8
-20 10 -13 9 -14 -10 -3 -26 13 -30 28 -8 28 8 0 13 -3 10 -5z m1318 1 c-7 -2
-19 -2 -25 0 -7 3 -2 5 12 5 14 0 19 -2 13 -5z m-1551 -55 l-8 -33 -6 27 c-3
15 -1 25 3 22 5 -3 9 5 10 18 0 13 3 18 5 11 3 -6 1 -26 -4 -45z m300 7 c13
-17 9 -28 -5 -16 -8 6 -16 9 -19 6 -2 -3 -5 2 -5 9 0 16 18 17 29 1z m1270 9
c12 -11 -5 -44 -23 -44 -14 0 -19 7 -19 25 0 18 5 25 18 25 10 0 21 -3 24 -6z
m-1488 -20 c3 -8 2 -12 -4 -9 -6 3 -10 10 -10 16 0 14 7 11 14 -7z m-107 -26
c-3 -7 -5 -2 -5 12 0 14 2 19 5 13 2 -7 2 -19 0 -25z m40 0 c-3 -7 -5 -2 -5
12 0 14 2 19 5 13 2 -7 2 -19 0 -25z m164 3 c5 9 8 -4 7 -35 0 -30 -4 -43 -9
-35 -5 8 -6 22 -3 33 4 13 2 16 -6 11 -7 -4 -9 -17 -5 -33 6 -26 6 -26 -14 -8
-12 11 -21 24 -21 30 0 6 4 5 9 -2 6 -11 10 -10 16 5 5 10 8 25 7 33 -1 12 0
12 5 1 4 -11 7 -11 14 0z m48 -25 c6 -16 17 -21 42 -21 26 0 34 -5 37 -20 3
-16 1 -17 -7 -5 -10 13 -11 13 -11 0 0 -13 -1 -13 -10 0 -9 13 -10 13 -10 0 0
-13 -2 -13 -9 -1 -5 8 -16 11 -26 8 -9 -4 -14 -3 -12 1 3 4 1 16 -4 27 l-9 20
1 -20 c2 -39 -2 -51 -10 -31 -9 24 -1 77 11 70 5 -3 13 -16 17 -28z m1306 -16
c3 -5 1 -10 -4 -10 -6 0 -11 5 -11 10 0 6 2 10 4 10 3 0 8 -4 11 -10z m-1405
-84 c0 -12 -5 -7 -19 24 -11 24 -11 24 3 6 9 -11 16 -24 16 -30z m1620 34 c0
-5 -7 -10 -15 -10 -8 0 -15 5 -15 10 0 6 7 10 15 10 8 0 15 -4 15 -10z m188
-7 c-10 -2 -28 -2 -40 0 -13 2 -5 4 17 4 22 1 32 -1 23 -4z m-661 -29 c-3 -3
-12 -4 -19 -1 -8 3 -5 6 6 6 11 1 17 -2 13 -5z m220 0 c-3 -3 -12 -4 -19 -1
-8 3 -5 6 6 6 11 1 17 -2 13 -5z m118 -4 c5 -8 -55 -3 -63 4 -2 3 10 4 27 4
18 -1 34 -4 36 -8z m50 1 c3 -6 -3 -9 -14 -8 -11 0 -17 5 -15 9 7 11 22 10 29
-1z m210 -6 c6 -2 -14 -4 -43 -4 -29 -1 -51 3 -48 7 4 7 67 5 91 -3z m-1028
-1 c-3 -3 -12 -4 -19 -1 -8 3 -5 6 6 6 11 1 17 -2 13 -5z m647 -32 c3 -5 -1
-9 -9 -9 -8 0 -12 4 -9 9 3 4 7 8 9 8 2 0 6 -4 9 -8z m93 -8 c-3 -3 -12 -4
-19 -1 -8 3 -5 6 6 6 11 1 17 -2 13 -5z m-1566 -69 c7 -13 3 -12 -10 5 -11 14
-21 30 -21 35 0 11 14 -7 31 -40z m1462 28 c-7 -2 -21 -2 -30 0 -10 3 -4 5 12
5 17 0 24 -2 18 -5z m95 0 c-16 -2 -40 -2 -55 0 -16 2 -3 4 27 4 30 0 43 -2
28 -4z m65 0 c-7 -2 -19 -2 -25 0 -7 3 -2 5 12 5 14 0 19 -2 13 -5z m93 -1
c-5 -8 -76 -4 -76 4 0 2 18 4 41 4 22 0 38 -4 35 -8z m124 -1 c0 -5 -25 -8
-55 -7 -30 0 -55 3 -55 6 0 3 25 6 55 7 30 1 55 -2 55 -6z m-1910 -41 c8 -5
13 -10 10 -11 -127 -22 -235 -17 -190 11 18 11 163 12 180 0z m1180 2 c0 -5
-7 -9 -15 -9 -8 0 -12 4 -9 9 3 4 9 8 15 8 5 0 9 -4 9 -8z m150 -1 c0 -4 -31
-7 -70 -7 -38 1 -70 4 -70 9 0 4 32 7 70 6 39 -1 70 -5 70 -8z m40 1 c0 -5 -7
-9 -15 -9 -8 0 -12 4 -9 9 3 4 9 8 15 8 5 0 9 -4 9 -8z m60 0 c0 -4 -11 -8
-25 -8 -14 0 -25 4 -25 8 0 4 11 8 25 8 14 0 25 -4 25 -8z m110 1 c0 -5 -23
-8 -50 -8 -28 -1 -50 3 -50 7 0 4 23 8 50 8 28 0 50 -3 50 -7z m80 -1 c0 -5
-7 -9 -15 -9 -8 0 -15 4 -15 9 0 4 7 8 15 8 8 0 15 -4 15 -8z m45 -1 c3 -6 -3
-9 -14 -8 -11 0 -17 5 -15 9 7 11 22 10 29 -1z m-1674 -64 c-10 -9 -11 -8 -5
6 3 10 9 15 12 12 3 -3 0 -11 -7 -18z m65 -34 c-10 -10 -19 5 -10 18 6 11 8
11 12 0 2 -7 1 -15 -2 -18z m1179 7 c3 -6 -4 -10 -17 -10 -18 0 -20 2 -8 10
19 12 18 12 25 0z m85 2 c0 -4 -15 -8 -34 -8 -19 0 -33 3 -31 6 6 9 65 11 65
2z m50 0 c0 -4 -9 -8 -20 -9 -11 -1 -20 2 -20 8 0 5 9 9 20 9 11 0 20 -4 20
-8z m50 -2 c0 -5 -2 -10 -4 -10 -3 0 -8 5 -11 10 -3 6 -1 10 4 10 6 0 11 -4
11 -10z m50 2 c0 -4 -9 -8 -20 -8 -11 0 -20 4 -20 8 0 4 9 8 20 8 11 0 20 -4
20 -8z m40 0 c0 -5 -7 -9 -15 -9 -8 0 -15 4 -15 9 0 4 7 8 15 8 8 0 15 -4 15
-8z m40 0 c0 -5 -7 -9 -15 -9 -8 0 -15 4 -15 9 0 4 7 8 15 8 8 0 15 -4 15 -8z
m110 -3 c0 -4 -22 -6 -50 -6 -27 1 -50 4 -50 8 0 3 23 5 50 5 28 -1 50 -4 50
-7z m183 2 c20 0 37 -4 37 -8 0 -5 -48 -7 -107 -5 -59 2 -101 7 -94 11 11 7
33 7 164 2z m-680 -8 c-7 -2 -19 -2 -25 0 -7 3 -2 5 12 5 14 0 19 -2 13 -5z
m-1069 -63 c17 -17 -11 -30 -64 -29 -37 0 -41 2 -22 9 25 11 30 30 6 30 -8 0
-13 4 -10 9 7 11 74 -3 90 -19z m1506 20 c0 -5 -4 -10 -10 -10 -5 0 -10 5 -10
10 0 6 5 10 10 10 6 0 10 -4 10 -10z m70 0 c0 -5 -2 -10 -4 -10 -3 0 -8 5 -11
10 -3 6 -1 10 4 10 6 0 11 -4 11 -10z m-75 -40 c3 -5 1 -10 -4 -10 -6 0 -11 5
-11 10 0 6 2 10 4 10 3 0 8 -4 11 -10z m130 0 c13 -6 15 -9 5 -9 -8 0 -22 4
-30 9 -18 12 -2 12 25 0z m165 -6 c0 -2 -21 -4 -47 -3 -37 1 -42 3 -23 8 24 7
70 3 70 -5z m-2060 -4 c0 -5 -10 -10 -22 -10 -19 0 -20 2 -8 10 19 13 30 13
30 0z m1843 3 c-7 -2 -19 -2 -25 0 -7 3 -2 5 12 5 14 0 19 -2 13 -5z m-1625
-58 c3 -16 1 -18 -9 -7 -7 6 -31 12 -53 13 -28 0 -35 3 -23 8 37 14 82 6 85
-14z m-283 5 c3 -5 1 -10 -4 -10 -6 0 -11 5 -11 10 0 6 2 10 4 10 3 0 8 -4 11
-10z m65 0 c0 -5 -2 -10 -4 -10 -3 0 -8 5 -11 10 -3 6 -1 10 4 10 6 0 11 -4
11 -10z m106 2 c-6 -9 -84 -7 -93 2 -4 3 17 6 46 6 29 0 50 -4 47 -8z m1791
-38 c-3 -3 -12 -4 -19 -1 -8 3 -5 6 6 6 11 1 17 -2 13 -5z m-1990 -10 c-3 -3
-12 -4 -19 -1 -8 3 -5 6 6 6 11 1 17 -2 13 -5z m193 -37 c0 -4 -13 -6 -28 -5
-15 1 -33 -1 -40 -6 -7 -4 -12 -2 -12 4 0 6 -5 8 -12 3 -16 -9 -78 -12 -83 -3
-2 3 15 7 38 9 23 1 42 3 43 4 6 6 94 1 94 -6z m-210 -5 c0 -5 -7 -9 -15 -9
-8 0 -12 4 -9 9 3 4 9 8 15 8 5 0 9 -4 9 -8z m1633 1 c-29 -2 -77 -2 -105 0
-29 2 -6 3 52 3 58 0 81 -1 53 -3z m145 0 c-15 -2 -42 -2 -60 0 -18 2 -6 4 27
4 33 0 48 -2 33 -4z m150 0 c-15 -2 -42 -2 -60 0 -18 2 -6 4 27 4 33 0 48 -2
33 -4z m110 0 c-10 -2 -26 -2 -35 0 -10 3 -2 5 17 5 19 0 27 -2 18 -5z m-1693
-33 c-3 -5 -16 -10 -28 -9 -20 1 -20 2 3 9 14 4 26 8 28 9 2 1 0 -3 -3 -9z
m-345 -12 c0 -4 -24 -7 -52 -7 -52 2 -52 2 -13 8 56 9 65 9 65 -1z m269 7
c-11 -10 -259 -18 -259 -7 0 6 49 11 132 11 73 1 130 -1 127 -4z m161 -25 c0
-5 -9 -10 -20 -10 -11 0 -20 5 -20 10 0 6 9 10 20 10 11 0 20 -4 20 -10z
m-390 -33 c0 -8 -3 -8 -9 2 -5 7 -11 9 -14 4 -6 -9 -96 -7 -105 2 -2 2 19 4
48 3 28 0 54 3 57 6 8 8 23 -3 23 -17z m244 12 c3 -3 -38 -6 -91 -6 -54 -1
-102 -2 -108 -3 -19 -4 -36 0 -32 8 6 8 223 10 231 1z m96 -30 c0 -5 -4 -9
-10 -9 -5 0 -10 7 -10 16 0 8 5 12 10 9 6 -3 10 -10 10 -16z m-460 -19 c0 -5
-8 -10 -17 -10 -15 0 -16 2 -3 10 19 12 20 12 20 0z m360 6 c-3 -2 -83 -6
-178 -9 -95 -2 -167 0 -161 4 13 8 346 13 339 5z m37 -2 c-3 -3 -12 -4 -19 -1
-8 3 -5 6 6 6 11 1 17 -2 13 -5z m1763 -4 l25 -2 -25 -7 c-30 -9 -946 -8 -955
1 -4 3 47 7 111 7 65 1 119 3 120 4 3 2 686 0 724 -3z m-1290 -15 c0 -2 -66
-4 -147 -5 -150 -1 -200 -4 -218 -11 -5 -2 -12 1 -15 6 -3 6 49 11 145 12 83
2 164 4 180 6 28 2 55 -2 55 -8z m75 5 c3 -6 -4 -10 -17 -10 -18 0 -20 2 -8
10 19 12 18 12 25 0z m90 0 c4 -6 -7 -10 -27 -9 -31 1 -32 1 -8 9 14 4 26 8
27 9 1 1 5 -3 8 -9z m65 -2 c0 -4 -7 -8 -15 -8 -8 0 -15 4 -15 8 0 5 7 9 15 9
8 0 15 -4 15 -9z m34 0 c-3 -4 -9 -8 -15 -8 -5 0 -9 4 -9 8 0 5 7 9 15 9 8 0
12 -4 9 -9z m56 4 c0 -4 -9 -8 -20 -9 -11 -1 -20 2 -20 5 0 4 9 8 20 9 11 1
20 -2 20 -5z m-750 -22 c0 -5 -5 -10 -11 -10 -5 0 -7 5 -4 10 3 6 8 10 11 10
2 0 4 -4 4 -10z m-410 -10 c0 -5 -12 -10 -27 -9 l-28 1 25 8 c14 4 26 8 28 9
1 1 2 -3 2 -9z m253 -3 c-6 -9 -243 -8 -243 1 0 4 56 7 124 7 68 0 122 -3 119
-8z m967 -7 c8 -5 13 -10 10 -10 -3 -1 -14 -4 -25 -6 -45 -11 -214 -18 -228
-10 -15 10 -54 0 -44 -11 4 -3 148 -7 321 -7 174 -1 319 -5 323 -9 4 -4 -155
-7 -352 -7 -514 1 -485 2 -485 -14 0 -7 15 -18 33 -23 31 -10 31 -10 -17 -11
-36 0 -45 3 -37 11 28 28 12 37 -66 36 -103 -2 -118 -6 -101 -26 9 -12 25 -14
66 -10 67 7 90 0 65 -18 -10 -8 -14 -17 -10 -22 5 -4 146 -7 313 -7 173 1 304
-2 304 -7 0 -5 -42 -8 -93 -8 -52 1 -99 -1 -105 -5 -20 -12 -2 -27 26 -23 15
2 38 0 52 -4 14 -4 -127 -7 -312 -8 -205 -1 -339 3 -343 9 -3 5 -18 9 -33 9
-15 0 -66 0 -114 0 -52 0 -88 4 -88 10 0 6 43 9 108 9 59 -1 114 2 122 7 7 4
34 9 59 10 32 2 46 7 46 16 0 10 -15 14 -56 14 -42 -1 -55 3 -52 12 3 7 9 13
14 13 6 0 5 9 -1 20 -10 18 -8 20 20 20 21 0 30 5 30 16 0 12 -7 15 -25 12
-22 -5 -34 9 -21 23 9 8 681 7 696 -1z m91 -9 c-8 -5 -20 -7 -28 -4 -21 8 -15
13 15 13 20 0 23 -3 13 -9z m-1058 -28 c-18 -2 -48 -2 -65 0 -18 2 -4 4 32 4
36 0 50 -2 33 -4z m154 1 c-3 -3 -12 -4 -19 -1 -8 3 -5 6 6 6 11 1 17 -2 13
-5z m1301 -19 c3 -3 -24 -5 -59 -4 -41 0 -57 3 -44 8 20 8 94 5 103 -4z m151
-6 c-15 -9 -32 -2 -24 11 3 5 13 6 21 3 12 -4 13 -8 3 -14z m54 4 c-7 -2 -19
-2 -25 0 -7 3 -2 5 12 5 14 0 19 -2 13 -5z m-1513 -22 c0 -4 -25 -7 -55 -8
-30 -1 -55 2 -55 5 0 4 25 8 55 8 30 1 55 -2 55 -5z m810 -24 c25 -2 -22 -4
-103 -5 -82 -1 -146 1 -144 6 5 6 139 6 247 -1z m-303 -3 c-3 -3 -12 -4 -19
-1 -8 3 -5 6 6 6 11 1 17 -2 13 -5z m40 0 c-3 -3 -12 -4 -19 -1 -8 3 -5 6 6 6
11 1 17 -2 13 -5z m771 -1 c-10 -2 -26 -2 -35 0 -10 3 -2 5 17 5 19 0 27 -2
18 -5z m-1558 -24 c0 -6 -4 -8 -9 -5 -5 3 -42 6 -82 7 -41 1 -66 5 -57 8 26 9
148 1 148 -10z m76 4 c-3 -3 -19 -7 -36 -8 -32 -3 -42 11 -12 17 20 5 55 -2
48 -9z m84 -2 c0 -4 -11 -7 -25 -7 -26 0 -34 11 -12 19 14 5 37 -2 37 -12z
m164 -2 c-3 -5 -10 -7 -15 -3 -5 3 -7 10 -3 15 3 5 10 7 15 3 5 -3 7 -10 3
-15z m-57 4 c-10 -10 -77 -14 -77 -4 0 4 19 8 42 10 23 1 39 -1 35 -6z m1223
-23 c0 -5 -2 -10 -4 -10 -3 0 -8 5 -11 10 -3 6 -1 10 4 10 6 0 11 -4 11 -10z
m-423 -46 c-3 -3 -12 -4 -19 -1 -8 3 -5 6 6 6 11 1 17 -2 13 -5z m-927 -20
c-5 -9 -180 -13 -180 -4 0 3 -30 4 -67 3 -38 -2 -60 1 -50 5 26 11 303 8 297
-4z m135 -3 c-9 -8 -115 -8 -115 1 0 3 10 8 23 10 32 4 99 -3 92 -11z m754
-21 c283 0 511 -3 507 -7 -4 -4 -98 -8 -209 -10 -221 -4 -211 -4 -266 -2 -25
2 -52 -6 -75 -20 -33 -21 -74 -23 -62 -3 2 4 1 14 -4 21 -6 10 -12 8 -25 -12
l-16 -25 -152 3 c-159 3 -233 -3 -226 -20 4 -11 5 -11 139 -16 l95 -3 -120 -6
c-118 -5 -120 -5 -118 -28 2 -13 -4 -25 -12 -28 -30 -12 -3 -24 53 -25 44 0
52 -2 35 -9 -27 -11 -30 -27 -5 -33 9 -3 66 -6 126 -6 61 -1 112 -4 115 -7 8
-8 -399 3 -461 12 -32 4 -48 12 -48 21 0 10 10 14 33 13 51 -3 57 -1 57 19 0
11 -6 22 -12 24 -24 10 14 25 47 20 24 -4 34 -1 38 11 5 13 -2 16 -43 17 -79
2 -91 7 -66 28 22 18 8 41 -25 41 -16 0 -29 4 -29 9 0 13 80 26 150 24 36 -1
296 -2 579 -3z m-897 -65 c5 -6 8 -6 8 1 0 7 19 9 53 6 96 -8 70 -19 -35 -15
-57 2 -156 5 -220 6 -64 1 -120 5 -123 9 -4 4 64 6 151 5 92 -1 162 -6 166
-12z m694 -32 c-7 -7 -77 -5 -85 2 -2 3 17 5 44 5 27 0 45 -3 41 -7z m44 -1
c0 -5 -7 -9 -15 -9 -8 0 -15 4 -15 9 0 4 7 8 15 8 8 0 15 -4 15 -8z m50 0 c0
-4 -9 -8 -20 -8 -11 0 -20 4 -20 8 0 4 9 8 20 8 11 0 20 -4 20 -8z m697 -7 c2
-5 -54 -8 -130 -7 -72 0 -228 1 -344 2 -117 0 -213 4 -213 9 0 11 684 8 687
-4z m103 5 c0 -6 -19 -10 -42 -10 -24 0 -38 4 -31 8 18 11 73 12 73 2z m100
-6 c0 -2 -9 -4 -21 -4 -11 0 -18 4 -14 10 5 8 35 3 35 -6z m-1923 0 c-3 -3
-12 -4 -19 -1 -8 3 -5 6 6 6 11 1 17 -2 13 -5z m53 -3 c0 -10 -26 -9 -36 2 -4
4 2 7 14 7 12 0 22 -4 22 -9z m275 -1 c3 -5 -43 -8 -120 -8 -69 1 -125 6 -125
10 0 11 238 10 245 -2z m590 -35 c6 -2 -42 -3 -105 -3 -72 1 -98 3 -70 7 44 6
155 3 175 -4z m-915 0 c0 -7 -30 -13 -34 -7 -3 4 4 9 15 9 10 1 19 0 19 -2z
m54 -3 c3 -5 -1 -9 -9 -9 -8 0 -12 4 -9 9 3 4 7 8 9 8 2 0 6 -4 9 -8z m264 -1
c13 -1 21 -4 19 -8 -3 -5 -29 -7 -59 -7 -165 5 -209 7 -199 13 8 6 123 6 239
2z m710 2 c-10 -2 -28 -2 -40 0 -13 2 -5 4 17 4 22 1 32 -1 23 -4z m-983 -43
c3 -6 -4 -10 -17 -10 -18 0 -20 2 -8 10 19 12 18 12 25 0z m160 -1 c64 1 115
-3 115 -8 0 -5 -41 -8 -92 -6 -51 2 -110 4 -131 4 -23 1 -36 5 -32 11 4 6 11
8 16 4 6 -3 61 -5 124 -5z m1565 -8 c0 -14 -62 -14 -967 3 -51 1 -95 4 -98 7
-3 3 236 5 530 5 451 -1 535 -3 535 -15z m-1425 -1 c3 -5 1 -10 -4 -10 -6 0
-11 5 -11 10 0 6 2 10 4 10 3 0 8 -4 11 -10z m-305 -40 c0 -5 -2 -10 -4 -10
-3 0 -8 5 -11 10 -3 6 -1 10 4 10 6 0 11 -4 11 -10z m76 -2 c3 -4 -1 -5 -10
-4 -8 1 -18 5 -22 8 -3 4 1 5 10 4 8 -1 18 -5 22 -8z m203 1 c26 -1 31 -3 19
-10 -15 -8 -49 -6 -68 6 -6 3 -10 2 -10 -3 0 -5 -12 -7 -26 -4 -34 6 -12 20
24 15 15 -2 43 -4 61 -4z m705 2 c3 -4 -6 -7 -19 -7 -33 2 -40 11 -10 14 13 1
26 -2 29 -7z m-391 -32 c60 -1 110 -6 113 -11 3 -4 14 -8 25 -8 10 0 19 -5 19
-12 0 -6 -3 -8 -7 -5 -3 4 -18 0 -31 -9 -21 -14 -44 -15 -141 -10 -64 3 -132
6 -151 6 -26 0 -31 3 -20 10 8 5 25 10 38 10 12 0 22 5 22 10 0 6 -11 10 -25
10 -14 0 -25 4 -25 8 0 5 17 7 38 6 20 -1 86 -3 145 -5z m-299 -20 c-5 -8
-225 -2 -233 7 -3 2 50 4 117 3 67 -1 119 -6 116 -10z m726 4 c0 -9 -199 -7
-208 1 -3 3 43 6 101 6 59 0 107 -3 107 -7z m30 3 c0 -3 -4 -8 -10 -11 -5 -3
-10 -1 -10 4 0 6 5 11 10 11 6 0 10 -2 10 -4z m54 -5 c-8 -8 -34 -10 -38 -2
-3 4 6 7 19 7 14 0 22 -2 19 -5z m36 -1 c0 -5 -5 -10 -11 -10 -5 0 -7 5 -4 10
3 6 8 10 11 10 2 0 4 -4 4 -10z m64 1 c3 -4 -4 -7 -14 -6 -27 2 -33 10 -10 12
11 1 22 -2 24 -6z m225 -7 c2 -2 -38 -4 -90 -4 -52 0 -89 4 -82 8 11 7 164 4
172 -4z m-1141 -33 c14 -1 22 -7 22 -18 0 -13 -3 -14 -8 -6 -5 8 -36 13 -79
15 -39 1 -70 5 -68 8 3 5 39 5 133 1z m552 1 c0 -5 -7 -9 -15 -9 -8 0 -15 4
-15 9 0 4 7 8 15 8 8 0 15 -4 15 -8z m80 -2 c0 -5 -14 -7 -31 -5 -45 6 -47 13
-5 13 20 0 36 -4 36 -8z m318 1 c105 -1 192 -4 192 -8 0 -5 -26 -7 -57 -6 -32
0 -141 2 -243 3 -102 1 -176 5 -165 9 11 5 34 7 50 5 17 -1 117 -3 223 -3z
m348 -8 c-10 -10 -76 -13 -76 -4 0 4 19 8 42 10 23 1 39 -2 34 -6z m-1066 -28
c0 -2 -9 -3 -19 -2 -11 0 -18 5 -15 9 4 6 34 0 34 -7z m-460 -1 c0 -8 -19 -13
-24 -6 -3 5 1 9 9 9 8 0 15 -2 15 -3z m603 -1 c3 -5 -16 -7 -41 -5 -73 5 -82
10 -20 11 31 0 59 -2 61 -6z m417 -8 c91 -2 193 -4 228 -4 34 -1 62 -4 62 -8
0 -9 -31 -9 -385 2 -143 4 -268 8 -277 7 -10 0 -20 3 -23 8 -3 4 48 6 112 4
65 -2 192 -6 283 -9z m-907 -2 c-7 -2 -19 -2 -25 0 -7 3 -2 5 12 5 14 0 19 -2
13 -5z m57 2 c0 -7 -30 -13 -34 -7 -3 4 4 9 15 9 10 1 19 0 19 -2z m65 -5 c-3
-5 -12 -7 -20 -3 -21 7 -19 13 6 13 11 0 18 -4 14 -10z m232 -26 c-3 -3 -12
-4 -19 -1 -8 3 -5 6 6 6 11 1 17 -2 13 -5z m-337 -10 c0 -8 -19 -13 -24 -6 -3
5 1 9 9 9 8 0 15 -2 15 -3z m-20 -44 c0 -5 -5 -10 -11 -10 -5 0 -7 5 -4 10 3
6 8 10 11 10 2 0 4 -4 4 -10z m507 -36 c-3 -3 -12 -4 -19 -1 -8 3 -5 6 6 6 11
1 17 -2 13 -5z m-261 -36 c4 -7 3 -8 -4 -4 -7 4 -12 2 -12 -5 0 -7 -3 -10 -6
-6 -6 5 3 27 11 27 2 0 7 -5 11 -12z m250 -20 c-19 -11 -19 -11 -1 -24 18 -13
17 -14 -9 -14 -22 0 -27 4 -22 17 4 9 2 19 -4 23 -6 4 4 7 22 8 29 1 30 -1 14
-10z m114 -3 c7 -8 9 -15 5 -15 -4 0 -1 -8 6 -17 13 -15 11 -16 -11 -10 -14 4
-29 7 -35 7 -5 0 -4 4 4 9 12 8 12 12 2 25 -11 13 -11 16 2 16 8 0 20 -7 27
-15z m-213 -31 c-3 -3 -12 -4 -19 -1 -8 3 -5 6 6 6 11 1 17 -2 13 -5z m376
-11 c-7 -2 -19 -2 -25 0 -7 3 -2 5 12 5 14 0 19 -2 13 -5z m103 -6 c3 -2 -7
-4 -21 -4 -14 0 -27 3 -30 7 -5 8 43 5 51 -3z m-371 -67 c-3 -5 -12 -10 -18
-10 -7 0 -6 4 3 10 19 12 23 12 15 0z m75 -6 c0 -3 -13 -3 -29 -2 -16 1 -28 5
-26 9 5 6 55 0 55 -7z m593 -21 c-7 -2 -19 -2 -25 0 -7 3 -2 5 12 5 14 0 19
-2 13 -5z m120 0 c-7 -2 -19 -2 -25 0 -7 3 -2 5 12 5 14 0 19 -2 13 -5z m110
0 c-7 -2 -19 -2 -25 0 -7 3 -2 5 12 5 14 0 19 -2 13 -5z m-728 -49 c0 -18 -6
-20 -46 -15 -8 1 -9 5 0 14 6 8 8 17 4 21 -4 3 4 5 18 3 16 -3 24 -11 24 -23z
m115 16 c0 -5 -4 -10 -10 -10 -5 0 -17 -8 -27 -19 -13 -13 -24 -16 -38 -10
-16 6 -17 8 -3 8 10 1 22 10 28 21 11 20 50 28 50 10z m-20 -272 c0 -5 5 -6
10 -3 6 4 18 4 27 1 14 -6 14 -8 -3 -21 -21 -16 -38 -20 -30 -7 3 5 -1 9 -9 9
-8 0 -12 -3 -10 -7 2 -4 -9 -7 -25 -8 -17 0 -30 4 -30 9 0 6 4 8 9 5 5 -4 7 2
5 11 -4 14 2 18 26 19 16 1 30 -3 30 -8z m10 -104 c0 -8 -19 -13 -24 -6 -3 5
1 9 9 9 8 0 15 -2 15 -3z m-239 -21 c8 -8 2 -10 -27 -8 -49 4 -46 4 -40 13 7
12 53 9 67 -5z m102 -6 c-2 -4 -5 -7 -8 -7 -3 0 -9 0 -15 0 -5 0 -10 4 -10 9
0 5 8 8 18 7 9 -2 16 -6 15 -9z m143 -173 c1 -9 0 -13 -4 -10 -3 4 -7 14 -8
22 -1 9 0 13 4 10 3 -4 7 -14 8 -22z"/>
<path d="M820 2598 c0 -3 7 -19 15 -34 8 -16 15 -22 15 -14 -1 8 -7 24 -15 34
-8 11 -15 17 -15 14z"/>
<path d="M872 2518 c-6 -8 -6 -22 -1 -36 10 -25 29 -21 28 6 0 14 -2 13 -9 -3
-7 -17 -9 -17 -9 -2 -1 24 3 32 12 29 5 -1 6 2 2 8 -8 13 -10 13 -23 -2z"/>
<path d="M760 1616 c0 -2 7 -6 15 -10 8 -3 15 -1 15 4 0 6 -7 10 -15 10 -8 0
-15 -2 -15 -4z"/>
<path d="M870 1612 c0 -8 121 -4 129 4 2 2 -26 4 -62 4 -37 0 -67 -4 -67 -8z"/>
<path d="M1030 1490 l-25 -7 28 -12 c36 -14 37 -14 37 3 0 20 -10 24 -40 16z"/>
<path d="M1090 1480 c0 -5 5 -10 10 -10 6 0 10 5 10 10 0 6 -4 10 -10 10 -5 0
-10 -4 -10 -10z"/>
<path d="M655 1256 c-18 -13 -18 -14 4 -21 28 -9 48 7 28 23 -10 9 -18 8 -32
-2z"/>
<path d="M672 1118 c7 -19 35 -21 41 -3 5 11 0 15 -19 15 -16 0 -24 -5 -22
-12z"/>
<path d="M1453 3032 c-1 -27 1 -31 7 -17 6 16 8 17 12 5 3 -8 3 -4 1 10 -2 18
-1 21 5 11 8 -11 10 -11 14 0 3 9 23 14 60 14 40 1 54 -3 51 -11 -3 -7 0 -21
7 -31 9 -15 10 -13 5 12 -4 22 -3 26 5 15 9 -13 10 -13 10 0 1 27 22 -19 25
-55 3 -26 0 -32 -13 -31 -8 2 -19 11 -23 22 -7 18 -8 18 -9 -1 l-1 -20 -9 20
c-6 14 -9 15 -9 5 -1 -9 3 -20 8 -25 6 -6 12 -23 15 -39 5 -27 26 -61 26 -42
0 5 8 2 17 -5 10 -8 6 3 -10 23 -30 40 -37 71 -9 41 9 -10 14 -14 10 -9 -14
18 -8 29 8 15 8 -7 13 -21 11 -30 -3 -10 2 -24 10 -30 8 -7 13 -8 12 -3 -4 21
2 28 12 14 8 -13 9 -13 7 2 -2 9 1 16 7 15 5 -1 10 -8 12 -16 1 -8 9 -21 19
-30 9 -9 14 -11 10 -4 -3 6 -2 14 4 18 14 9 8 36 -18 72 -35 49 -26 59 13 14
19 -23 32 -48 29 -55 -3 -8 -1 -17 5 -21 7 -4 8 1 4 12 -6 15 -4 16 9 6 8 -7
18 -9 23 -5 4 4 5 -5 3 -21 -3 -15 -2 -29 1 -32 4 -2 8 8 9 22 3 37 14 50 23
27 6 -16 8 -16 8 -2 1 9 -3 20 -9 23 -5 3 -10 12 -10 18 1 7 9 1 20 -12 11
-12 17 -28 13 -35 -3 -6 -3 -8 1 -4 4 3 21 -8 38 -25 l30 -32 -26 33 c-14 19
-23 38 -20 44 4 6 13 0 21 -16 7 -14 16 -26 19 -26 2 0 -3 14 -12 31 -10 21
-12 35 -6 41 6 6 8 18 5 27 -3 9 8 0 25 -19 17 -19 29 -40 27 -47 -2 -6 6 -19
18 -30 22 -18 22 -18 4 3 -9 11 -14 24 -10 27 3 4 -1 15 -10 25 -11 12 -13 22
-7 32 8 13 10 13 10 -1 0 -9 6 -22 14 -29 8 -6 13 -17 10 -24 -3 -7 3 -19 13
-26 15 -12 16 -12 6 0 -19 21 -16 34 4 19 10 -8 5 1 -10 19 -40 50 -33 61 11
15 20 -22 36 -37 35 -35 -1 3 2 13 8 24 10 19 12 19 40 -8 15 -15 25 -32 22
-38 -3 -6 -3 -8 2 -4 11 11 36 -12 28 -25 -4 -6 -1 -7 7 -2 10 6 12 4 7 -8 -3
-9 -3 -19 2 -21 16 -10 8 30 -10 49 -13 14 -15 25 -9 35 8 13 10 13 10 -1 0
-9 10 -24 23 -35 22 -19 22 -19 6 1 -9 11 -20 30 -23 42 -4 11 -14 27 -24 34
-14 11 -15 11 -4 -1 28 -31 9 -31 -23 0 -19 19 -35 30 -35 26 0 -5 -8 -2 -17
5 -15 11 -16 11 -5 -1 6 -8 12 -18 12 -23 0 -14 -21 4 -30 27 -8 20 -9 20 -10
1 l-1 -20 -8 20 c-5 11 -13 21 -20 21 -6 1 -13 3 -16 4 -3 1 -9 4 -15 5 -5 1
-12 4 -15 5 -3 1 -9 4 -15 5 -5 1 -11 4 -12 5 -2 1 -16 3 -31 4 -20 2 -26 -1
-23 -11 3 -7 3 -13 0 -13 -2 0 -9 10 -14 23 -7 18 -9 18 -9 4 -1 -10 -6 -15
-11 -12 -6 4 -7 11 -4 17 4 6 2 8 -4 4 -5 -3 -13 0 -15 6 -4 10 -6 10 -6 1 -1
-7 -5 -13 -11 -13 -5 0 -9 5 -7 12 1 6 -10 12 -25 13 -23 2 -26 -1 -17 -12 7
-7 9 -16 6 -19 -3 -3 -12 5 -21 18 -14 22 -23 24 -76 23 -34 -1 -63 2 -66 7
-3 4 -40 8 -82 8 l-77 0 -2 -38z m217 8 c0 13 1 13 10 0 9 -13 10 -13 10 0 0
13 1 13 10 0 9 -13 10 -13 10 0 0 13 1 13 10 0 8 -12 10 -12 10 -1 0 8 9 2 21
-13 20 -25 45 -27 36 -2 -3 7 0 13 7 13 8 0 12 -12 11 -29 -1 -15 4 -33 12
-39 7 -6 13 -16 13 -22 0 -5 -9 -2 -20 8 -14 12 -18 25 -14 39 8 25 1 20 -15
-12 -9 -17 -9 -22 1 -20 11 3 13 -1 17 -34 1 -9 4 -8 11 2 9 13 10 13 10 0 1
-9 6 -5 15 10 l14 25 -3 -29 c-2 -17 -9 -30 -19 -32 -14 -2 -68 55 -93 100
-11 19 -12 19 -19 -3 -4 -13 -2 -28 4 -34 6 -6 11 -19 11 -29 0 -10 5 -17 11
-15 14 3 22 -40 9 -48 -6 -3 -11 -1 -11 4 -3 20 -5 26 -17 49 -7 12 -10 22 -7
22 3 0 -1 10 -9 22 -19 26 -21 42 -5 32 7 -4 10 -1 7 6 -2 7 -12 14 -21 16
-14 2 -16 -2 -11 -19 3 -12 11 -28 17 -35 19 -24 17 -49 -5 -68 -12 -11 -18
-13 -14 -6 4 7 4 21 0 30 -4 9 -8 33 -9 52 -1 19 -5 44 -9 55 -6 16 -6 17 3 5
9 -13 11 -13 11 0z m190 -57 c0 -8 9 -26 20 -40 11 -14 20 -21 20 -16 0 6 -7
16 -15 23 -17 14 -21 55 -5 45 6 -4 8 -10 5 -14 -2 -5 5 -17 18 -27 l22 -19
-20 24 c-18 22 -18 24 -2 18 15 -6 17 -3 12 12 -4 15 -2 19 12 16 10 -2 19 -4
21 -5 1 -2 7 -4 12 -5 6 -1 12 -4 15 -5 3 -1 10 -4 15 -5 6 -1 12 -3 15 -4 3
0 8 0 11 2 4 1 11 -8 15 -21 5 -13 13 -21 18 -18 13 9 31 -18 22 -33 -6 -10
-15 -4 -35 22 -27 35 -51 42 -65 18 -6 -9 -10 -8 -16 6 -5 10 -9 21 -9 25 -1
3 -4 9 -8 12 -5 3 -6 3 -3 -1 3 -3 0 -12 -5 -19 -6 -6 -10 -16 -8 -20 1 -5 -3
-19 -11 -32 l-12 -23 -21 26 c-11 14 -24 38 -28 53 -8 26 -8 26 -9 3 -1 -19
-3 -21 -16 -11 -11 9 -12 17 -4 32 8 15 13 17 25 7 8 -6 14 -18 14 -26z m300
-97 c0 -5 -13 3 -30 19 -16 16 -30 33 -30 39 0 5 14 -3 30 -19 17 -16 30 -33
30 -39z m-522 -1 c-3 -3 -9 2 -12 12 -6 14 -5 15 5 6 7 -7 10 -15 7 -18z"/>
<path d="M1739 3015 c17 -33 31 -51 31 -40 0 6 -10 21 -21 35 -13 17 -17 18
-10 5z"/>
<path d="M1677 2950 c3 -11 9 -22 13 -25 5 -3 6 4 3 15 -3 11 -9 22 -13 25 -5
3 -6 -4 -3 -15z"/>
<path d="M1963 2975 c0 -8 4 -12 9 -9 5 3 6 10 3 15 -9 13 -12 11 -12 -6z"/>
<path d="M1492 3021 c-17 -49 -15 -70 6 -67 19 3 23 22 9 51 -9 18 -8 19 6 6
15 -12 17 -10 17 15 0 20 -3 25 -9 15 -7 -11 -9 -11 -13 0 -2 7 -10 -2 -16
-20z m5 -43 c-3 -8 -6 -5 -6 6 -1 11 2 17 5 13 3 -3 4 -12 1 -19z"/>
<path d="M1537 3020 c-12 -63 -23 -84 -38 -75 -5 3 -6 -2 -2 -12 5 -14 3 -15
-7 -6 -7 6 -16 26 -20 45 -7 28 -8 29 -9 8 -1 -28 -21 -66 -21 -41 0 11 -4 9
-15 -5 -15 -19 -15 -19 -9 1 4 14 3 16 -4 7 -13 -18 -4 -57 18 -77 17 -15 18
-14 13 21 -3 25 -2 34 6 30 6 -4 9 -11 6 -16 -3 -5 -1 -11 4 -14 4 -3 8 3 7
14 0 11 4 19 9 19 6 0 9 -8 8 -17 -2 -11 0 -12 3 -4 5 10 10 7 19 -10 15 -29
8 -45 -11 -21 -13 17 -14 17 -7 -2 6 -18 5 -18 -10 -7 -14 12 -15 11 -11 -14
5 -25 4 -26 -13 -13 -16 13 -17 12 -5 -3 7 -9 22 -15 32 -13 18 3 38 -27 32
-48 -1 -5 2 -6 8 -2 7 4 7 12 0 25 -13 24 -13 33 0 25 6 -4 7 1 3 12 -6 16 -5
16 11 4 11 -9 16 -24 13 -38 -2 -12 0 -20 4 -17 12 7 11 41 -1 49 -6 4 -8 11
-4 16 3 6 12 3 21 -8 13 -17 13 -17 4 3 -5 11 -17 26 -25 33 -9 8 -14 17 -11
21 3 5 1 11 -5 15 -7 4 -6 14 2 28 6 12 11 24 11 27 -1 3 1 7 3 9 2 2 4 -3 4
-11 0 -9 7 -21 15 -28 8 -7 12 -17 9 -22 -3 -5 -12 -1 -21 9 -13 16 -13 16 -2
-7 7 -14 12 -27 12 -30 0 -3 5 -13 12 -23 11 -16 13 -16 19 -1 5 14 9 14 23 3
14 -12 14 -10 -2 14 -10 15 -19 35 -20 45 -1 9 -5 25 -9 35 -10 20 0 51 13 43
5 -4 4 7 -2 24 -6 17 -14 25 -18 19 -4 -8 -8 -7 -12 2 -3 8 -6 4 -6 -9 -1 -13
3 -21 8 -17 5 3 13 0 17 -6 5 -8 3 -9 -6 -4 -9 6 -11 4 -5 -5 5 -8 3 -11 -6
-8 -8 3 -16 18 -20 34 l-5 29 -7 -35z m53 -95 c0 -14 -22 9 -31 32 -5 13 -13
21 -19 18 -6 -3 -7 1 -4 10 5 13 12 8 30 -19 13 -19 24 -38 24 -41z m-129 2
c-10 -9 -11 -8 -5 6 3 10 9 15 12 12 3 -3 0 -11 -7 -18z m60 5 c-7 -13 -6 -23
1 -30 7 -7 8 -12 3 -12 -4 0 0 -9 10 -20 10 -11 15 -21 12 -21 -4 -1 -12 -2
-17 -3 -6 0 -15 -8 -20 -16 -9 -13 -10 -13 -10 0 0 12 -2 12 -9 2 -7 -11 -9
-11 -14 1 -4 10 0 14 11 12 31 -5 42 13 27 42 -13 24 -6 63 11 63 2 0 0 -8 -5
-18z m-86 -31 c0 -16 -3 -27 -7 -24 -13 7 -7 53 6 53 1 0 1 -13 1 -29z m160
-32 c-5 -7 -11 -6 -21 2 -11 9 -12 15 -2 26 10 12 13 12 20 -1 5 -9 6 -21 3
-27z"/>
<path d="M1286 3004 c-4 -15 -3 -31 1 -35 5 -5 9 7 10 26 1 42 -2 45 -11 9z"/>
<path d="M1309 3013 c-1 -10 -2 -26 -3 -35 -1 -26 -19 -24 -34 3 -13 23 -13
22 -8 -15 3 -22 10 -44 15 -49 6 -6 8 -2 4 14 -3 13 -3 22 0 19 10 -9 17 -64
11 -84 -5 -15 -8 -16 -16 -5 -8 11 -9 11 -5 -2 4 -13 -1 -16 -23 -14 -30 3
-32 -13 -3 -46 7 -9 10 -18 7 -21 -3 -3 -1 -9 4 -12 14 -8 9 21 -6 36 -7 7
-12 18 -12 26 0 23 37 -30 42 -58 2 -14 9 -24 16 -22 6 1 13 -5 13 -13 3 -28
4 -33 11 -41 8 -7 4 23 -8 58 -4 13 -2 18 4 14 7 -4 9 5 7 26 -3 19 -1 28 5
22 5 -5 10 -21 12 -36 2 -15 7 -31 12 -35 4 -4 7 -3 5 2 -1 6 1 18 6 28 7 17
8 17 29 0 21 -18 21 -18 3 3 -9 11 -14 24 -11 27 4 4 13 -1 21 -11 12 -16 13
-16 6 2 -4 12 -3 17 4 13 5 -3 10 1 10 9 0 10 -4 11 -10 5 -7 -7 -15 -7 -24 0
-20 17 -16 34 5 18 9 -7 7 -2 -6 12 -13 15 -22 30 -21 35 1 5 -2 28 -6 52 -5
28 -11 39 -16 31 -4 -7 -5 -17 -2 -22 3 -6 7 -24 9 -41 3 -23 1 -27 -6 -16 -7
11 -10 12 -10 2 0 -7 12 -29 26 -48 24 -31 24 -39 1 -35 -5 1 -6 -2 -3 -7 2
-4 1 -14 -5 -22 -7 -12 -9 -11 -9 5 0 12 -6 27 -12 34 -13 12 -19 93 -6 85 15
-9 16 14 3 40 -17 33 -12 46 15 41 22 -4 23 0 10 30 l-9 20 -1 -20 -1 -20 -9
20 c-7 16 -9 17 -9 3 -1 -9 -5 -19 -10 -22 -5 -4 -7 3 -4 14 3 11 3 20 -1 20
-3 0 -7 -8 -7 -17z m24 -83 c3 -11 0 -18 -6 -17 -6 1 -11 -23 -12 -63 0 -36
-6 -74 -12 -85 -12 -19 -12 -19 -13 6 0 15 -7 32 -15 39 -16 14 -21 35 -5 25
17 -10 41 40 35 74 -9 50 15 69 28 21z"/>
<path d="M1311 2934 c0 -11 3 -14 6 -6 3 7 2 16 -1 19 -3 4 -6 -2 -5 -13z"/>
<path d="M1292 2837 c-7 -8 -7 -19 2 -36 12 -22 13 -22 12 13 -1 41 0 40 -14
23z"/>
<path d="M1376 2970 c5 -90 4 -87 33 -112 l26 -23 -19 23 c-22 26 -28 59 -14
85 5 9 6 23 1 30 -5 8 -10 4 -15 -13 l-8 -25 4 25 c3 14 7 36 10 50 5 20 5 21
-2 5 l-9 -20 -5 20 c-3 11 -4 -9 -2 -45z"/>
<path d="M1407 3008 c-3 -11 1 -30 9 -42 10 -14 14 -16 14 -6 0 13 2 13 10 0
8 -12 10 -10 9 10 0 14 -5 34 -10 45 -8 16 -8 14 -5 -10 3 -16 3 -24 0 -17 -3
6 -9 10 -14 7 -4 -3 -6 4 -3 15 3 11 3 20 0 20 -2 0 -7 -10 -10 -22z"/>
<path d="M1628 3013 c-6 -25 2 -54 12 -48 5 3 6 18 4 32 -7 35 -10 38 -16 16z"/>
<path d="M1221 2983 c0 -12 3 -33 8 -47 13 -32 -2 -43 -52 -41 -23 1 -36 -3
-34 -9 5 -14 30 -15 40 -1 5 6 7 4 4 -5 -2 -8 7 -36 21 -63 27 -50 42 -60 17
-11 -10 21 -12 38 -6 59 7 22 9 25 10 9 1 -29 30 -26 38 5 6 23 7 24 14 6 4
-12 8 -14 8 -6 1 8 -6 22 -14 31 -8 9 -19 34 -24 56 -9 37 -9 37 -11 9 l-2
-30 -8 30 c-6 23 -8 25 -9 8z m37 -89 c-4 -6 -4 -15 0 -20 4 -4 -1 -2 -10 5
-10 7 -15 18 -11 25 4 6 6 20 5 31 -2 16 0 15 11 -5 8 -14 10 -30 5 -36z m-51
-36 c-3 -7 -5 -2 -5 12 0 14 2 19 5 13 2 -7 2 -19 0 -25z"/>
<path d="M1072 2917 c-5 -7 -12 -30 -15 -52 -4 -26 -4 -33 2 -20 l8 20 6 -20
c3 -11 4 -2 1 20 l-4 40 13 -40 c10 -33 14 -37 20 -21 4 10 2 24 -4 32 -8 9
-7 18 1 31 9 16 10 15 5 -7 -5 -20 -4 -22 5 -10 10 13 11 13 8 0 -2 -16 30
-109 44 -124 4 -6 8 -14 8 -20 0 -20 -25 15 -37 52 l-12 37 4 -40 c3 -30 2
-35 -5 -20 -7 15 -8 10 -5 -21 2 -22 -1 -47 -6 -55 -8 -10 -9 -7 -4 11 4 17 3
21 -3 11 -8 -11 -11 -11 -16 0 -3 8 -3 4 0 -8 3 -13 3 -23 -1 -23 -3 0 -10 10
-15 23 -5 14 -9 16 -9 6 -1 -8 11 -26 26 -40 14 -13 23 -19 19 -12 -3 6 -2 14
3 17 12 8 22 -19 10 -31 -5 -5 8 -24 34 -48 l42 -40 -38 41 c-23 25 -35 44
-28 48 5 4 7 14 4 24 -6 15 -5 15 10 3 12 -9 14 -17 7 -26 -7 -8 -3 -18 13
-34 18 -16 24 -18 24 -7 0 8 -4 13 -8 11 -9 -6 -30 20 -22 28 3 4 13 1 22 -5
9 -7 13 -8 9 -4 -4 5 -3 15 2 21 7 9 5 17 -7 26 -16 13 -17 12 -5 -3 8 -9 9
-19 4 -22 -13 -8 -34 18 -24 29 4 5 2 5 -4 2 -7 -4 -15 0 -18 9 -9 23 -8 26 7
17 22 -14 36 -12 29 5 -5 15 -4 15 11 3 9 -7 15 -17 12 -21 -3 -5 -1 -11 4
-14 10 -6 10 12 0 29 -3 6 -3 21 2 35 4 14 8 21 9 15 1 -5 4 -19 6 -30 3 -11
6 -26 7 -33 2 -7 9 -18 17 -25 10 -10 11 -9 4 3 -5 8 -9 20 -11 25 -8 39 -15
56 -37 103 -27 54 -42 69 -31 30 3 -13 -7 -1 -24 26 -30 50 -52 64 -69 43z
m73 -67 c9 -17 20 -28 26 -25 12 8 30 -37 19 -49 -5 -5 -6 -16 -3 -25 4 -11 1
-10 -10 4 -9 11 -17 26 -17 33 0 7 -9 31 -20 52 -11 22 -18 40 -15 40 2 0 12
-14 20 -30z m15 -121 c0 -5 -9 -4 -19 3 -11 7 -17 16 -14 20 5 10 33 -10 33
-23z"/>
<path d="M1172 2796 c1 -14 5 -23 9 -20 7 4 0 44 -7 44 -2 0 -3 -11 -2 -24z"/>
<path d="M1951 2910 c14 -31 19 -36 19 -24 0 6 -7 19 -16 30 -14 18 -14 18 -3
-6z"/>
<path d="M2199 2905 c5 -11 17 -29 26 -40 l16 -20 -10 20 c-5 11 -17 29 -26
40 l-16 20 10 -20z"/>
<path d="M2094 2880 c1 -16 7 -35 15 -42 12 -11 12 -10 5 2 -5 8 -10 23 -11
34 -3 16 -1 17 14 5 15 -11 15 -10 -1 9 -11 12 -20 22 -21 22 -1 0 -2 -13 -1
-30z"/>
<path d="M1336 2860 c5 -8 9 -18 9 -22 0 -3 3 -9 7 -13 3 -4 5 0 4 9 -1 9 -8
22 -16 29 -10 10 -11 9 -4 -3z"/>
<path d="M1883 2854 c9 -11 14 -23 11 -26 -3 -3 -1 -8 4 -12 18 -11 8 25 -12
41 -21 18 -21 18 -3 -3z"/>
<path d="M2050 2865 c0 -2 6 -8 13 -14 10 -8 14 -7 14 2 0 8 -6 14 -14 14 -7
0 -13 -1 -13 -2z"/>
<path d="M1011 2843 c-1 -12 -3 -27 -4 -35 -2 -7 -2 -9 1 -4 2 4 8 2 13 -5 7
-11 9 -11 8 1 -1 8 -5 26 -9 40 -7 23 -8 23 -9 3z"/>
<path d="M1034 2811 c0 -33 3 -46 7 -35 7 18 8 18 9 -1 1 -18 2 -17 11 4 5 14
8 32 6 40 -3 9 -6 5 -7 -9 -1 -21 -4 -18 -14 15 l-13 40 1 -54z"/>
<path d="M1645 2838 c3 -12 17 -34 32 -48 l26 -25 -26 33 c-15 19 -25 38 -22
42 3 5 1 11 -4 15 -6 3 -8 -4 -6 -17z"/>
<path d="M1701 2833 c19 -28 39 -36 39 -16 0 4 -3 4 -6 0 -3 -3 -17 6 -31 21
l-24 27 22 -32z"/>
<path d="M1735 2840 c10 -11 20 -20 23 -20 3 0 -3 9 -13 20 -10 11 -20 20 -23
20 -3 0 3 -9 13 -20z"/>
<path d="M1101 2818 c-8 -30 -9 -31 -11 -8 -1 18 -6 12 -17 -25 -9 -27 -18
-44 -20 -37 -3 6 -9 9 -15 6 -5 -3 -12 3 -15 15 -3 11 -9 18 -14 16 -4 -3 -12
3 -18 12 -9 16 -10 14 -7 -7 1 -14 9 -25 17 -25 8 0 15 -11 16 -25 l2 -25 -8
25 c-7 18 -9 20 -10 7 -1 -18 25 -77 35 -77 2 0 1 8 -4 18 -5 9 -6 26 -1 37 7
18 8 17 8 -6 1 -14 12 -36 26 -49 13 -12 23 -26 20 -29 -2 -4 1 -13 6 -21 7
-12 8 -10 6 7 -2 13 -13 34 -26 47 -28 30 -25 61 7 60 12 -1 22 1 23 5 0 3 2
20 3 36 2 17 7 41 10 53 4 12 5 22 2 22 -3 0 -10 -15 -15 -32z m-8 -48 c3 -11
1 -18 -4 -14 -5 3 -9 0 -9 -7 0 -7 -2 -10 -5 -8 -4 5 5 49 10 49 1 0 5 -9 8
-20z"/>
<path d="M1770 2847 c0 -2 15 -16 33 -33 l32 -29 -29 33 c-28 30 -36 37 -36
29z"/>
<path d="M1850 2846 c0 -2 8 -10 18 -17 15 -13 16 -12 3 4 -13 16 -21 21 -21
13z"/>
<path d="M1679 2822 c5 -10 18 -25 27 -33 11 -9 9 -2 -6 19 -26 35 -36 42 -21
14z"/>
<path d="M949 2818 c14 -19 6 -42 -11 -32 -7 5 -8 2 -2 -7 5 -8 9 -16 10 -19
0 -3 7 -21 16 -40 l15 -35 7 32 c4 18 4 38 0 45 -5 7 -9 19 -11 27 -1 8 -10
21 -19 30 -17 15 -17 15 -5 -1z m19 -35 c0 -5 2 -16 6 -25 4 -10 6 -23 3 -30
-3 -7 -6 -3 -6 10 -1 13 -5 21 -10 18 -7 -5 -8 11 -2 32 2 6 11 1 9 -5z"/>
<path d="M2043 2823 c4 -6 2 -13 -4 -15 -5 -2 -7 -10 -4 -19 7 -19 60 -19 60
-1 0 7 -3 11 -6 10 -4 -2 -17 6 -30 17 -12 11 -19 15 -16 8z m25 -38 c-3 -3
-9 2 -12 12 -6 14 -5 15 5 6 7 -7 10 -15 7 -18z"/>
<path d="M2210 2821 c0 -6 4 -13 10 -16 6 -3 7 1 4 9 -7 18 -14 21 -14 7z"/>
<path d="M1620 2816 c0 -2 8 -10 18 -17 15 -13 16 -12 3 4 -13 16 -21 21 -21
13z"/>
<path d="M1470 2796 c0 -2 8 -10 18 -17 15 -13 16 -12 3 4 -13 16 -21 21 -21
13z"/>
<path d="M1600 2796 c0 -2 8 -10 18 -17 15 -13 16 -12 3 4 -13 16 -21 21 -21
13z"/>
<path d="M885 2760 c6 -29 11 -34 18 -16 3 8 0 20 -8 26 -12 10 -13 8 -10 -10z"/>
<path d="M2412 2759 c-8 -12 -9 -18 -3 -15 5 4 12 2 15 -3 9 -14 -19 -7 -40 9
-18 14 -18 14 -1 -12 9 -15 17 -34 17 -43 0 -8 4 -15 9 -15 5 0 7 10 5 23 -5
22 -4 22 5 1 10 -24 31 -41 31 -26 0 5 -3 12 -7 16 -5 4 -8 20 -8 36 0 15 3
26 8 23 4 -2 7 -10 7 -17 0 -7 9 -21 20 -31 10 -9 19 -20 18 -24 -1 -3 4 -17
11 -31 l11 -25 -3 27 c-2 15 0 25 4 22 5 -3 9 1 9 8 0 9 3 9 10 -2 5 -8 10
-10 10 -4 0 12 -52 64 -65 64 -5 0 2 -12 16 -27 l24 -28 -27 24 c-15 13 -26
28 -25 33 1 5 -7 16 -18 24 -18 12 -22 11 -33 -7z"/>
<path d="M1565 2751 c-3 -5 -2 -12 3 -15 5 -3 9 1 9 9 0 17 -3 19 -12 6z"/>
<path d="M1686 2748 c3 -5 10 -6 15 -3 13 9 11 12 -6 12 -8 0 -12 -4 -9 -9z"/>
<path d="M831 2734 c0 -11 3 -14 6 -6 3 7 2 16 -1 19 -3 4 -6 -2 -5 -13z"/>
<path d="M1396 2738 c3 -5 10 -6 15 -3 13 9 11 12 -6 12 -8 0 -12 -4 -9 -9z"/>
<path d="M1654 2735 c-4 -9 -2 -21 5 -28 6 -6 11 -9 12 -6 0 2 2 12 4 21 4 24
-13 34 -21 13z"/>
<path d="M1843 2730 c1 -14 7 -25 12 -25 6 0 11 11 13 25 2 18 0 21 -6 11 -8
-11 -11 -11 -16 0 -3 8 -4 3 -3 -11z"/>
<path d="M1935 2741 c6 -11 4 -13 -7 -8 -12 4 -14 1 -10 -15 4 -15 7 -17 13
-6 7 10 9 10 9 -2 0 -12 2 -12 9 -1 6 9 11 10 15 2 10 -15 109 -14 125 2 9 7
12 8 7 0 -4 -7 0 -10 10 -9 9 1 21 11 26 21 8 13 7 16 -1 11 -6 -4 -11 -1 -11
6 0 8 -3 9 -8 3 -6 -9 -27 -12 -34 -5 -9 7 -104 4 -110 -4 -4 -6 -13 -4 -24 5
-15 12 -17 12 -9 0z"/>
<path d="M1390 2715 c13 -14 26 -25 28 -25 3 0 -5 11 -18 25 -13 14 -26 25
-28 25 -3 0 5 -11 18 -25z"/>
<path d="M1472 2717 c10 -20 14 -18 21 9 1 4 -6 8 -15 10 -15 2 -16 -1 -6 -19z"/>
<path d="M2151 2726 c-8 -10 -8 -16 3 -25 11 -9 15 -8 20 5 13 34 -1 47 -23
20z"/>
<path d="M1365 2710 c10 -11 20 -20 23 -20 3 0 -3 9 -13 20 -10 11 -20 20 -23
20 -3 0 3 -9 13 -20z"/>
<path d="M1570 2711 c0 -6 4 -13 10 -16 6 -3 7 1 4 9 -7 18 -14 21 -14 7z"/>
<path d="M2440 2712 c0 -6 5 -14 11 -17 6 -4 8 -13 5 -20 -3 -8 2 -19 9 -25 8
-7 13 -15 11 -19 -6 -9 23 -75 30 -68 3 3 16 -4 28 -17 11 -12 15 -15 9 -6
-17 21 -16 27 2 27 8 0 15 -6 15 -12 0 -7 9 -20 20 -30 23 -21 16 -42 -8 -23
-13 11 -14 11 -7 -2 5 -8 9 -24 7 -35 -1 -17 0 -16 8 3 5 13 14 20 20 17 6 -4
9 -1 8 6 -2 7 8 13 24 14 19 1 28 -4 32 -18 2 -10 9 -16 15 -13 11 7 25 -29
16 -43 -3 -5 -1 -12 5 -16 5 -3 10 -11 10 -17 0 -6 -9 -3 -20 7 -11 10 -20 14
-20 9 0 -5 9 -15 20 -21 21 -14 36 -1 24 19 -13 21 -12 65 1 65 15 0 49 -64
47 -87 -1 -10 0 -11 4 -2 3 6 11 9 17 6 9 -5 9 -4 0 6 -6 7 -9 20 -6 29 4 14
3 14 -6 1 -8 -11 -11 -11 -11 -2 0 7 -11 29 -24 48 -20 30 -25 32 -30 17 -6
-15 -8 -15 -16 -3 -9 13 -10 13 -10 0 -1 -8 -7 -1 -14 15 -7 17 -11 34 -8 39
3 5 9 -1 14 -13 8 -22 29 -21 27 2 0 7 -3 7 -6 -2 -4 -9 -10 -3 -19 18 -8 18
-18 30 -23 27 -5 -3 -11 3 -14 14 -3 11 -11 20 -17 20 -10 0 -10 -4 0 -15 7
-9 10 -18 7 -21 -3 -3 -11 5 -18 18 -7 12 -10 24 -8 25 2 1 -6 15 -19 33 -18
23 -27 29 -36 21 -7 -6 -16 -8 -19 -4 -4 3 -7 -3 -7 -15 0 -33 -19 -36 -32 -5
-6 15 -11 31 -10 34 1 4 -8 15 -18 24 -11 10 -20 13 -20 7z m131 -59 c13 -16
12 -17 -3 -4 -17 13 -22 21 -14 21 2 0 10 -8 17 -17z m-15 -21 c5 1 10 -9 11
-24 1 -15 7 -36 12 -45 9 -14 10 -8 6 27 -4 37 -3 40 4 17 5 -16 16 -36 23
-45 11 -13 11 -15 -2 -7 -13 8 -13 7 0 -11 22 -29 24 -30 18 -13 -4 9 -2 22 3
30 7 12 9 12 9 -1 0 -13 1 -13 10 0 6 9 10 10 10 3 0 -6 -4 -14 -10 -18 -5 -3
-7 -12 -4 -19 5 -14 -32 -16 -54 -3 -18 12 -42 75 -36 95 3 9 -4 1 -15 -18
-11 -19 -20 -28 -21 -20 0 12 -2 12 -9 2 -6 -10 -11 -5 -20 20 -9 28 -9 30 3
16 12 -16 14 -16 26 7 8 16 16 21 20 14 4 -6 11 -9 16 -7z"/>
<path d="M2525 2619 c-4 -6 -5 -12 -2 -15 2 -3 7 2 10 11 7 17 1 20 -8 4z"/>
<path d="M1250 2705 c0 -2 6 -8 13 -14 10 -8 14 -7 14 2 0 8 -6 14 -14 14 -7
0 -13 -1 -13 -2z"/>
<path d="M1290 2703 c0 -5 10 -18 23 -29 l22 -19 -20 25 c-11 14 -21 27 -22
29 -2 2 -3 0 -3 -6z"/>
<path d="M1545 2670 c-4 -6 -12 -7 -18 -3 -7 3 -3 -3 7 -15 20 -23 36 -31 17
-9 -8 10 -7 17 1 25 7 7 9 12 6 12 -4 0 -10 -5 -13 -10z"/>
<path d="M2420 2673 c0 -6 7 -16 15 -23 8 -7 17 -27 21 -46 3 -19 10 -36 14
-39 15 -9 -13 80 -31 100 -11 11 -19 14 -19 8z"/>
<path d="M1264 2662 c4 -3 14 -7 22 -8 9 -1 13 0 10 4 -4 3 -14 7 -22 8 -9 1
-13 0 -10 -4z"/>
<path d="M725 2613 c9 -13 14 -27 11 -31 -2 -4 2 -18 11 -32 13 -24 14 -24 10
-3 -3 13 -1 26 4 29 5 3 9 11 9 17 0 7 -4 6 -10 -3 -7 -12 -9 -10 -8 6 2 21
20 26 35 9 4 -4 2 -5 -4 -1 -9 5 -11 2 -6 -9 4 -13 8 -14 14 -4 14 23 -7 43
-45 44 -35 1 -36 1 -21 -22z"/>
<path d="M1266 2627 c3 -10 9 -15 12 -12 3 3 0 11 -7 18 -10 9 -11 8 -5 -6z"/>
<path d="M1225 2619 c-4 -6 -4 -13 -1 -16 3 -4 6 -1 6 7 0 10 4 10 18 -1 15
-13 16 -12 3 4 -16 20 -18 20 -26 6z"/>
<path d="M1510 2619 c0 -15 18 -19 23 -6 3 8 -1 14 -9 14 -8 0 -14 -4 -14 -8z"/>
<path d="M610 2599 c-7 -11 -10 -23 -7 -25 2 -2 9 7 15 21 14 30 7 33 -8 4z"/>
<path d="M1104 2585 c1 -8 8 -21 16 -28 12 -10 12 -9 2 4 -6 9 -9 18 -6 21 3
3 1 9 -4 12 -6 3 -9 -1 -8 -9z"/>
<path d="M1280 2596 c0 -2 8 -10 18 -17 15 -13 16 -12 3 4 -13 16 -21 21 -21
13z"/>
<path d="M1320 2596 c0 -2 8 -10 18 -17 15 -13 16 -12 3 4 -13 16 -21 21 -21
13z"/>
<path d="M1080 2571 c0 -6 4 -13 10 -16 6 -3 7 1 4 9 -7 18 -14 21 -14 7z"/>
<path d="M647 2563 c-4 -3 -7 -24 -7 -46 0 -52 10 -42 13 12 2 22 2 41 1 41 0
0 -4 -3 -7 -7z"/>
<path d="M603 2525 c0 -22 2 -30 4 -17 2 12 2 30 0 40 -3 9 -5 -1 -4 -23z"/>
<path d="M1180 2556 c0 -2 8 -10 18 -17 15 -13 16 -12 3 4 -13 16 -21 21 -21
13z"/>
<path d="M1350 2546 c0 -2 8 -10 18 -17 15 -13 16 -12 3 4 -13 16 -21 21 -21
13z"/>
<path d="M986 2527 c3 -10 9 -15 12 -12 3 3 0 11 -7 18 -10 9 -11 8 -5 -6z"/>
<path d="M1825 2530 c3 -5 8 -10 11 -10 2 0 4 5 4 10 0 6 -5 10 -11 10 -5 0
-7 -4 -4 -10z"/>
<path d="M1860 2525 c0 -8 7 -15 15 -15 8 0 15 7 15 15 0 8 -7 15 -15 15 -8 0
-15 -7 -15 -15z"/>
<path d="M2470 2536 c0 -2 8 -10 18 -17 15 -13 16 -12 3 4 -13 16 -21 21 -21
13z"/>
<path d="M1060 2526 c0 -2 8 -10 18 -17 15 -13 16 -12 3 4 -13 16 -21 21 -21
13z"/>
<path d="M530 2512 c1 -14 30 -45 32 -34 3 31 2 35 -14 38 -10 1 -18 -1 -18
-4z"/>
<path d="M1032 2490 c0 -14 2 -19 5 -12 2 6 2 18 0 25 -3 6 -5 1 -5 -13z"/>
<path d="M1053 2495 c0 -8 4 -12 9 -9 5 3 6 10 3 15 -9 13 -12 11 -12 -6z"/>
<path d="M1120 2506 c0 -2 8 -10 18 -17 15 -13 16 -12 3 4 -13 16 -21 21 -21
13z"/>
<path d="M2540 2505 c0 -5 5 -17 10 -25 5 -8 10 -10 10 -5 0 6 -5 17 -10 25
-5 8 -10 11 -10 5z"/>
<path d="M933 2485 c0 -8 4 -12 9 -9 5 3 6 10 3 15 -9 13 -12 11 -12 -6z"/>
<path d="M2503 2482 c2 -12 6 -24 10 -28 3 -4 4 4 2 16 -6 30 -16 40 -12 12z"/>
<path d="M1010 2456 c0 -8 4 -17 9 -20 5 -4 7 3 4 14 -6 23 -13 26 -13 6z"/>
<path d="M1063 2455 c0 -8 4 -12 9 -9 5 3 6 10 3 15 -9 13 -12 11 -12 -6z"/>
<path d="M2531 2454 c0 -11 3 -14 6 -6 3 7 2 16 -1 19 -3 4 -6 -2 -5 -13z"/>
<path d="M2612 2450 c0 -14 2 -19 5 -12 2 6 2 18 0 25 -3 6 -5 1 -5 -13z"/>
<path d="M2661 2453 c-1 -17 16 -25 25 -12 4 7 3 9 -4 5 -5 -3 -13 0 -15 6 -4
9 -6 10 -6 1z"/>
<path d="M2630 2448 c0 -13 32 -67 48 -79 16 -13 16 -12 0 7 -10 11 -18 25
-18 30 -1 10 -30 52 -30 42z"/>
<path d="M2539 2417 c6 -6 18 -12 27 -13 12 -2 14 0 5 9 -6 6 -18 12 -27 13
-12 2 -14 0 -5 -9z"/>
<path d="M2580 2426 c0 -2 8 -10 18 -17 15 -13 16 -12 3 4 -13 16 -21 21 -21
13z"/>
<path d="M926 2411 c-3 -5 -19 -7 -36 -6 -17 1 -28 0 -25 -3 12 -12 55 -9 66
5 6 7 9 13 6 13 -3 0 -8 -4 -11 -9z"/>
<path d="M1530 2406 c-8 -10 -7 -15 6 -20 24 -9 34 -7 34 8 0 20 -26 27 -40
12z"/>
<path d="M2620 2411 c0 -6 4 -13 10 -16 6 -3 7 1 4 9 -7 18 -14 21 -14 7z"/>
<path d="M2730 2415 c0 -5 5 -17 10 -25 5 -8 10 -10 10 -5 0 6 -5 17 -10 25
-5 8 -10 11 -10 5z"/>
<path d="M768 2400 c7 -8 23 -15 37 -16 25 -1 33 10 15 21 -5 3 -10 0 -10 -7
0 -9 -3 -9 -10 2 -8 12 -10 12 -10 1 0 -11 -3 -11 -17 0 -15 11 -16 11 -5 -1z"/>
<path d="M1501 2394 c0 -11 3 -14 6 -6 3 7 2 16 -1 19 -3 4 -6 -2 -5 -13z"/>
<path d="M937 2369 c4 -13 8 -18 11 -10 2 7 -1 18 -6 23 -8 8 -9 4 -5 -13z"/>
<path d="M2540 2386 c0 -2 7 -9 15 -16 9 -7 15 -8 15 -2 0 5 -7 12 -15 16 -8
3 -15 4 -15 2z"/>
<path d="M966 2372 c-3 -5 1 -9 9 -9 8 0 12 4 9 9 -3 4 -7 8 -9 8 -2 0 -6 -4
-9 -8z"/>
<path d="M2504 2372 c4 -3 14 -7 22 -8 9 -1 13 0 10 4 -4 3 -14 7 -22 8 -9 1
-13 0 -10 -4z"/>
<path d="M2786 2367 c7 -19 -14 -21 -29 -2 -5 6 -7 4 -5 -4 5 -17 35 -23 44
-9 3 5 1 15 -5 21 -9 9 -11 8 -5 -6z"/>
<path d="M855 2361 c-3 -5 -2 -12 3 -15 5 -3 9 1 9 9 0 17 -3 19 -12 6z"/>
<path d="M400 2340 c0 -4 7 -13 15 -20 8 -7 15 -20 16 -29 1 -23 17 17 18 44
1 17 -1 17 -9 5 -5 -8 -10 -10 -10 -4 0 6 -7 11 -15 11 -8 0 -15 -4 -15 -7z"/>
<path d="M2666 2327 c3 -10 9 -15 12 -12 3 3 0 11 -7 18 -10 9 -11 8 -5 -6z"/>
<path d="M2831 2323 c7 -12 15 -20 18 -17 3 2 -3 12 -13 22 -17 16 -18 16 -5
-5z"/>
<path d="M793 2314 c0 -9 4 -11 12 -4 7 5 14 9 16 7 2 -1 3 0 1 2 -7 11 -29 7
-29 -5z"/>
<path d="M2716 2317 c3 -10 9 -15 12 -12 3 3 0 11 -7 18 -10 9 -11 8 -5 -6z"/>
<path d="M650 2311 c0 -6 4 -13 10 -16 6 -3 7 1 4 9 -7 18 -14 21 -14 7z"/>
<path d="M2794 2312 c4 -3 14 -7 22 -8 9 -1 13 0 10 4 -4 3 -14 7 -22 8 -9 1
-13 0 -10 -4z"/>
<path d="M763 2275 c0 -8 4 -12 8 -9 4 2 10 -2 12 -8 4 -10 6 -10 6 0 1 8 6
10 14 6 7 -4 9 -3 4 2 -5 5 -12 9 -15 9 -4 0 -12 3 -18 7 -6 4 -11 1 -11 -7z"/>
<path d="M830 2286 c0 -2 7 -9 15 -16 9 -7 15 -8 15 -2 0 5 -7 12 -15 16 -8 3
-15 4 -15 2z"/>
<path d="M895 2280 c-4 -6 -11 -7 -17 -4 -7 4 -8 2 -4 -5 6 -8 12 -9 20 -2 7
6 17 7 21 3 5 -4 5 -1 1 6 -9 15 -13 15 -21 2z"/>
<path d="M961 2283 c-1 -16 16 -26 24 -13 5 8 12 7 23 -2 15 -12 16 -11 3 5
-10 12 -17 14 -26 7 -9 -8 -15 -7 -18 2 -4 9 -6 9 -6 1z"/>
<path d="M2854 2272 c23 -26 23 -26 23 -7 0 8 -3 13 -5 10 -3 -3 -12 1 -21 7
-10 8 -9 4 3 -10z"/>
<path d="M680 2265 c6 -7 19 -12 28 -10 24 4 42 -13 35 -33 -4 -13 -3 -14 5
-3 8 11 10 11 15 0 3 -8 6 -9 6 -3 1 6 -5 17 -13 24 -8 6 -12 19 -9 28 4 13 3
14 -5 3 -8 -11 -10 -11 -15 0 -4 11 -6 11 -6 1 -1 -8 -6 -10 -13 -5 -23 14
-40 13 -28 -2z"/>
<path d="M910 2240 c-1 -23 -2 -23 -10 -5 -8 18 -9 18 -9 2 -1 -10 -5 -16 -10
-13 -5 4 -7 -3 -4 -14 4 -17 13 -19 56 -17 38 1 51 6 53 18 1 13 -5 16 -28 15
-22 -2 -32 3 -38 18 -8 20 -9 19 -10 -4z"/>
<path d="M2516 2242 c-3 -5 1 -9 9 -9 8 0 12 4 9 9 -3 4 -7 8 -9 8 -2 0 -6 -4
-9 -8z"/>
<path d="M2676 2242 c-3 -5 1 -9 9 -9 8 0 12 4 9 9 -3 4 -7 8 -9 8 -2 0 -6 -4
-9 -8z"/>
<path d="M640 2230 c0 -14 43 -30 55 -20 6 5 13 9 18 9 4 1 7 3 7 6 0 3 0 8 0
11 0 4 -7 0 -17 -7 -9 -8 -19 -12 -22 -11 -32 19 -41 22 -41 12z"/>
<path d="M781 2224 c0 -11 3 -14 6 -6 3 7 2 16 -1 19 -3 4 -6 -2 -5 -13z"/>
<path d="M824 2232 c4 -3 14 -7 22 -8 9 -1 13 0 10 4 -4 3 -14 7 -22 8 -9 1
-13 0 -10 -4z"/>
<path d="M2880 2230 c0 -5 5 -10 11 -10 5 0 7 5 4 10 -3 6 -8 10 -11 10 -2 0
-4 -4 -4 -10z"/>
<path d="M775 2190 c-2 -3 -31 -5 -64 -5 -57 2 -75 -5 -51 -20 6 -3 10 -1 10
6 0 8 4 8 15 -1 8 -7 15 -8 15 -3 0 5 15 8 33 8 17 -1 38 3 45 8 8 6 12 6 12
-1 0 -10 56 -9 67 2 4 3 2 6 -3 7 -51 5 -76 5 -79 -1z"/>
<path d="M2890 2196 c0 -2 8 -10 18 -17 15 -13 16 -12 3 4 -13 16 -21 21 -21
13z"/>
<path d="M721 2148 c-1 -10 6 -18 14 -18 8 0 18 0 22 -1 4 0 9 5 11 13 2 9 0
8 -7 -2 -8 -11 -11 -12 -11 -2 0 7 -4 11 -9 8 -5 -4 -12 0 -14 6 -3 8 -6 6 -6
-4z"/>
<path d="M580 2143 c0 -7 -9 -10 -20 -8 -11 2 -20 -2 -20 -8 0 -7 -4 -6 -10 3
-7 11 -10 11 -10 2 0 -7 -5 -10 -12 -6 -6 4 -8 3 -4 -4 6 -10 36 -9 55 2 5 4
12 0 14 -6 4 -10 6 -10 6 0 1 9 6 10 20 3 19 -10 31 -6 31 12 0 5 -6 7 -14 4
-7 -3 -19 0 -25 6 -8 8 -11 8 -11 0z"/>
<path d="M641 2134 c0 -11 3 -14 6 -6 3 7 2 16 -1 19 -3 4 -6 -2 -5 -13z"/>
<path d="M665 2139 c-4 -5 -4 -13 -1 -16 3 -4 6 0 6 8 0 11 2 11 10 -1 6 -9
10 -10 10 -3 0 17 -17 25 -25 12z"/>
<path d="M701 2134 c0 -11 3 -14 6 -6 3 7 2 16 -1 19 -3 4 -6 -2 -5 -13z"/>
<path d="M2850 2141 c0 -6 4 -13 10 -16 6 -3 7 1 4 9 -7 18 -14 21 -14 7z"/>
<path d="M2875 2139 c5 -7 52 -6 59 2 3 2 -10 5 -29 5 -18 0 -32 -3 -30 -7z"/>
<path d="M878 2102 c-10 -2 -18 -11 -18 -19 0 -14 -2 -14 -19 1 -16 15 -19 15
-24 1 -4 -8 -4 -22 -1 -30 5 -12 9 -12 29 1 13 9 29 13 34 10 5 -4 13 -2 16 4
4 7 11 8 18 2 7 -6 59 -9 117 -8 85 1 105 4 105 16 0 12 -20 15 -115 15 -63 0
-117 2 -120 5 -3 3 -13 4 -22 2z"/>
<path d="M1171 2090 c-13 -13 -13 -15 2 -18 10 -2 14 -10 11 -20 -5 -15 -4
-15 6 1 9 14 27 17 110 17 93 0 100 1 100 20 0 18 -7 19 -107 17 -79 -1 -110
-6 -122 -17z"/>
<path d="M2925 2100 c-3 -5 -5 -10 -3 -11 33 -8 38 -7 27 7 -14 17 -16 17 -24
4z"/>
<path d="M562 2091 c-11 -7 -11 -9 1 -14 8 -3 20 0 27 6 10 9 11 9 6 0 -4 -7
0 -10 11 -9 9 2 18 7 20 12 4 12 -48 16 -65 5z"/>
<path d="M665 2092 c8 -8 85 -10 85 -2 0 4 -20 7 -45 7 -25 0 -43 -2 -40 -5z"/>
<path d="M768 2093 c7 -3 16 -2 19 1 4 3 -2 6 -13 5 -11 0 -14 -3 -6 -6z"/>
<path d="M618 2048 c-7 -4 -8 -8 -3 -9 6 0 18 -2 28 -4 9 -2 17 2 17 9 0 14
-23 17 -42 4z"/>
<path d="M670 2048 c0 -4 11 -8 25 -8 14 0 25 4 25 8 0 4 -11 8 -25 8 -14 0
-25 -4 -25 -8z"/>
<path d="M1280 2048 c0 -4 4 -8 9 -8 6 0 12 4 15 8 3 5 -1 9 -9 9 -8 0 -15 -4
-15 -9z"/>
<path d="M94 2038 c-5 -7 3 -11 17 -10 116 14 142 24 50 20 -34 -1 -65 -6 -67
-10z"/>
<path d="M566 2038 c3 -4 11 -5 19 -1 21 7 19 12 -4 10 -11 0 -18 -5 -15 -9z"/>
<path d="M846 2041 c8 -8 84 -8 84 0 0 4 -20 7 -45 6 -24 0 -42 -3 -39 -6z"/>
<path d="M945 2040 c3 -5 8 -10 11 -10 2 0 4 5 4 10 0 6 -5 10 -11 10 -5 0 -7
-4 -4 -10z"/>
<path d="M880 2000 l-115 -5 -2 -37 -3 -37 152 4 c84 3 181 6 216 7 49 1 62 5
60 16 -3 13 -31 15 -168 15 l-165 0 120 7 c157 11 220 24 133 29 -24 1 -59 3
-78 4 -19 1 -87 0 -150 -3z m-30 -40 c0 -5 -2 -10 -4 -10 -3 0 -8 5 -11 10 -3
6 -1 10 4 10 6 0 11 -4 11 -10z"/>
<path d="M1206 2001 c-4 -7 -5 -15 -2 -18 9 -9 19 4 14 18 -4 11 -6 11 -12 0z"/>
<path d="M638 1992 c-27 -2 -38 -8 -38 -19 0 -12 7 -14 35 -10 19 3 35 2 35
-4 0 -5 -9 -9 -21 -9 -30 0 -18 -24 14 -28 15 -2 34 1 44 7 16 9 16 11 -7 20
-23 9 -23 10 -4 10 23 1 42 30 21 32 -7 0 -19 1 -27 2 -8 1 -32 1 -52 -1z"/>
<path d="M1210 1950 c-18 -11 1 -18 30 -10 24 6 24 6 4 12 -12 3 -27 2 -34 -2z"/>
<path d="M2984 1919 c1 -7 10 -13 19 -15 9 -1 15 2 11 7 -3 5 -9 7 -14 4 -4
-3 -11 0 -13 5 -3 6 -4 5 -3 -1z"/>
<path d="M837 1863 c-19 -18 -5 -32 32 -31 36 0 59 17 44 32 -8 8 -68 8 -76
-1z"/>
<path d="M986 1861 c-4 -5 -2 -12 3 -15 5 -4 12 -2 15 3 4 5 2 12 -3 15 -5 4
-12 2 -15 -3z"/>
<path d="M1195 1760 c3 -5 8 -10 11 -10 2 0 4 5 4 10 0 6 -5 10 -11 10 -5 0
-7 -4 -4 -10z"/>
<path d="M782 978 c6 -18 28 -21 28 -4 0 9 -7 16 -16 16 -9 0 -14 -5 -12 -12z"/>
<path d="M400 751 c-24 -16 6 -33 58 -33 22 0 57 21 49 29 -10 9 -93 13 -107
4z"/>
<path d="M406 712 c-3 -5 1 -9 9 -9 8 0 12 4 9 9 -3 4 -7 8 -9 8 -2 0 -6 -4
-9 -8z"/>
</g>
</svg>
